<?xml version="1.0" encoding="utf-8" ?><svg xmlns="http://www.w3.org/2000/svg" xmlns:xlink="http://www.w3.org/1999/xlink" width="2048" height="1024" viewBox="0 0 2048 1024"><path fill="#FAF7EE" d="M0 0L2048 0L2048 1024L0 1024L0 0Z"/><path fill="#15324E" d="M345.472 521.21C358.066 519.961 369.551 521.316 380.093 529.018C391.657 537.469 396.084 549.488 398.06 563.101C399.575 562.831 401.101 562.628 402.633 562.494C416.498 561.337 425.968 566.209 436.167 574.965C436.792 574.864 437.418 574.776 438.047 574.703C443.364 574.087 448.923 575.423 453.107 578.861C458.382 583.195 459.842 589.756 460.456 596.216C467.459 600.63 474.64 604.954 480.562 610.806C489.329 619.47 489.413 623.222 490.16 634.442C490.374 637.659 495.821 640.623 498.116 642.845C501.678 646.293 503.282 650.204 503.25 655.156C503.091 680.139 475.395 713.763 458.728 730.508C454.532 746.059 453.45 763.503 451.292 779.494L439.762 862.029C437.901 875.274 437.353 890.604 432.671 903.133C430.916 907.831 428.155 910.68 424.234 913.725C389.613 940.606 307.237 939.954 264.52 934.641C244.108 932.477 217.541 926.782 200.428 914.769C196.266 911.848 192.586 908.709 190.71 903.885C185.177 889.655 184.567 870.423 182.4 855.16C176.655 814.704 172.161 773.875 165.421 733.592C151.53 719.126 139.554 703.535 130.548 685.545C125.485 675.433 115.764 655.526 120.282 644.195C122.285 639.173 128.521 636.92 133.06 634.747C134.51 630.172 132.949 621.294 133.143 615.996C134.638 613.968 136.18 611.947 137.972 610.17C142.969 605.215 175.158 588.929 182.123 586.822C185.561 585.782 189.537 585.933 193.107 585.981C192.389 570.635 194.412 557.368 204.823 545.212C213.542 535.11 225.915 528.881 239.223 527.896C254.88 526.779 267.447 533.05 278.909 543.072C281.845 540.985 284.811 538.917 288.071 537.363C299.32 532.002 308.794 532.936 320.148 537.032C327.657 529.062 335.078 524.499 345.472 521.21Z"/><path fill="#6ABA9A" d="M447.627 740.939C446.905 757.092 443.508 773.795 441.287 789.834L427.944 885.585C426.63 894.947 426.075 901.778 418.031 907.718C384.757 932.287 302 931.687 261.526 925.784C241.231 922.824 210.599 917.296 197.544 899.731C195.111 884.964 193.314 870.065 191.312 855.233L182.034 788.137C180.056 773.142 179.058 757.113 175.223 742.486C211.517 770.535 244.975 784.349 290.233 790.578C292.17 793.412 294.265 795.851 296.999 797.959C302.111 801.901 308.919 803.764 315.314 802.85C323.135 801.731 328.939 797.254 333.486 791.019C376.041 783.286 413.72 768.054 447.627 740.939Z"/><path fill="#FAF7EE" d="M347.378 529.216C349.834 528.952 352.305 528.864 354.773 528.953C393.01 530.102 384.742 563.929 391.546 571.095C395.672 572.736 401.024 571.209 405.356 570.827C415.212 569.959 421.811 573.706 429.075 579.812C428.6 580.446 428.157 581.087 427.7 581.733C424.512 586.242 423.108 590.983 423.897 596.539C424.631 601.706 427.218 606.072 431.463 609.121C436.684 612.871 441.024 613.372 447.223 612.444C453.386 615.896 458.332 619.904 463.235 624.92C420.387 650.061 307.272 646.977 257.078 644.939C225.221 642.395 194.886 638.462 164.218 629.243C163.305 621.473 163.303 613.688 167.253 606.625C177.04 589.126 191.701 599.371 203.351 596.074C205.282 592.408 201.218 578.366 201.649 572.949C202.447 562.93 206.739 553.038 214.49 546.476C223.389 538.941 236.838 535.055 248.428 536.273C262.423 537.743 270.899 546.026 279.16 556.452C303.806 527.374 311.58 550.419 322.999 545.668C329.965 542.771 332.023 534.427 347.378 529.216Z"/><path fill="#15324E" d="M228.831 568.578C237.582 566.695 246.232 572.155 248.298 580.864C250.363 589.574 245.086 598.336 236.422 600.584C230.653 602.081 224.526 600.341 220.406 596.035C216.285 591.73 214.815 585.532 216.563 579.835C218.312 574.137 223.004 569.831 228.831 568.578Z"/><path fill="#6ABA9A" d="M228.548 576.773C232.961 574.594 238.305 576.412 240.474 580.831C242.643 585.249 240.813 590.589 236.39 592.748C231.981 594.901 226.661 593.078 224.499 588.673C222.336 584.268 224.148 578.944 228.548 576.773Z"/><path fill="#15324E" d="M350.926 548.569C357.999 545.838 365.952 549.322 368.739 556.374C371.526 563.426 368.104 571.406 361.074 574.248C353.966 577.122 345.877 573.653 343.059 566.523C340.242 559.392 343.773 551.332 350.926 548.569Z"/><path fill="#6ABA9A" d="M353.967 555.478C356.146 554.741 358.554 555.258 360.238 556.825C361.922 558.393 362.61 560.757 362.031 562.984C361.452 565.21 359.699 566.939 357.464 567.487C354.208 568.286 350.901 566.377 349.963 563.158C349.025 559.939 350.791 556.553 353.967 555.478Z"/><path fill="#15324E" d="M326.786 600.726C334.004 598.355 341.78 602.272 344.171 609.483C346.562 616.695 342.666 624.481 335.461 626.892C328.228 629.312 320.405 625.398 318.005 618.159C315.604 610.919 319.54 603.107 326.786 600.726Z"/><path fill="#6ABA9A" d="M329.799 607.713C333.164 607.015 336.464 609.153 337.201 612.51C337.938 615.866 335.837 619.19 332.49 619.966C330.29 620.475 327.986 619.763 326.457 618.101C324.929 616.439 324.411 614.083 325.103 611.934C325.795 609.784 327.588 608.172 329.799 607.713Z"/><path fill="#15324E" d="M311.646 561.601C318.572 559.666 325.749 563.743 327.634 570.683C329.519 577.623 325.39 584.77 318.437 586.605C311.554 588.421 304.496 584.343 302.63 577.474C300.764 570.605 304.79 563.517 311.646 561.601Z"/><path fill="#6ABA9A" d="M312.222 569.539C314.786 568.004 318.103 568.736 319.783 571.208C321.463 573.681 320.922 577.034 318.55 578.853C316.89 580.126 314.662 580.375 312.761 579.5C310.861 578.626 309.601 576.771 309.488 574.683C309.375 572.594 310.427 570.614 312.222 569.539Z"/><path fill="#15324E" d="M389.495 601.605C396.257 600.275 402.865 604.516 404.471 611.218C406.077 617.92 402.11 624.695 395.48 626.575C390.942 627.861 386.065 626.558 382.773 623.18C379.482 619.803 378.305 614.893 379.708 610.391C381.111 605.888 384.868 602.515 389.495 601.605Z"/><path fill="#6ABA9A" d="M388.947 609.496C390.748 608.414 393.006 608.439 394.783 609.56C396.56 610.682 397.555 612.708 397.354 614.8C397.153 616.892 395.791 618.692 393.833 619.455C391.139 620.504 388.09 619.316 386.816 616.72C385.542 614.124 386.468 610.985 388.947 609.496Z"/><path fill="#15324E" d="M272.275 613.61C275.734 612.107 279.734 612.579 282.749 614.845C285.764 617.111 287.329 620.822 286.848 624.562C286.367 628.303 283.914 631.497 280.424 632.926C275.106 635.104 269.026 632.595 266.792 627.3C264.558 622.005 267.004 615.899 272.275 613.61Z"/><path fill="#6ABA9A" d="M456.784 660.298C458.219 668.093 453.375 688.685 451.912 697.215C419.419 734.561 378.905 753.158 331.334 763.449L330.88 763.071C325.12 758.355 319.683 754.882 311.941 754.769C304.131 754.655 298.216 758.575 292.845 763.822C258.516 759.296 225.97 745.864 198.443 724.86C187.344 716.491 177.01 705.72 169.245 694.19C168.348 682.88 166.16 671.413 164.1 660.263C246.28 683.525 374.523 682.437 456.784 660.298Z"/><path fill="#6ABA9A" d="M457.247 604.871C458.087 605.124 458.807 605.347 459.588 605.756C466.418 609.337 478.669 617.864 480.757 625.496C481.774 629.212 480.888 633.343 478.9 636.576C472.115 647.61 452.552 652.593 440.715 655.469C378.063 670.694 204.703 676.698 150.17 643.594C146.345 640.675 143.768 637.614 142.15 633.052L142.993 631.662C150.986 631.72 161.665 637.968 169.7 640.31C179.125 642.975 188.688 645.121 198.348 646.737C258.442 657.123 323.055 657.773 383.628 651.947C403.734 650.013 457.842 644.731 469.846 629.458C478.102 618.953 458.419 613.819 457.247 604.871Z"/><path fill="#FAF7EE" d="M484.28 643.591C486.118 644.176 488.206 644.764 489.851 645.779C492.298 647.291 493.94 650.146 494.573 652.905C497.275 664.679 485.557 683.193 479.332 692.672C447.432 741.249 397.125 769.096 341.249 780.734L337.772 781.277C335.71 778.405 336.005 774.776 335.685 771.283C384.394 761.394 432.451 737.454 462.802 696.975C474.147 681.845 484.584 666.699 481.724 647.011L484.28 643.591Z"/><path fill="#FAF7EE" d="M131.251 642.226C133.249 642.891 134.805 643.125 135.843 645.173C138.078 649.58 139.146 655.742 140.905 660.486C145.466 672.597 151.447 684.124 158.722 694.827C189.509 739.908 236.712 761.953 288.921 771.77C288.133 775.356 288.794 779.212 286.706 782.376C251.088 776.383 217.123 763.575 188.279 741.426C164.205 722.939 147.601 701.385 134.808 674.02C131.88 667.757 128.258 661.496 127.431 654.53C126.791 649.141 127.977 646.421 131.251 642.226Z"/><path fill="#6ABA9A" d="M309.195 763.419C314.803 762.373 320.539 764.427 324.208 768.795C327.876 773.163 328.908 779.168 326.909 784.511C324.909 789.853 320.187 793.704 314.552 794.59C306.01 795.932 297.974 790.166 296.51 781.645C295.046 773.123 300.696 765.006 309.195 763.419Z"/><path fill="#15324E" d="M309.555 770.355C312.319 769.417 315.376 770.07 317.516 772.055C319.656 774.041 320.535 777.04 319.806 779.866C319.078 782.693 316.858 784.893 314.025 785.596C309.89 786.623 305.681 784.207 304.482 780.119C303.283 776.031 305.521 771.724 309.555 770.355Z"/><path fill="#6ABA9A" d="M439.859 581.974C441.563 582.311 443.335 582.637 444.973 583.225C447.835 584.253 450.411 587.226 451.707 589.937C453.098 592.802 453.23 596.117 452.071 599.082C450.547 603.082 447.781 604.57 444.134 606.282C443.059 606.061 441.99 605.824 440.938 605.509C437.258 604.408 434.539 602.257 432.756 598.831C431.277 595.991 430.822 592.95 431.861 589.877C433.265 585.725 436.113 583.866 439.859 581.974Z"/><path fill="#FAF7EE" d="M471.798 652.868C473.832 653.511 473.87 653.816 475.062 655.481C475.932 662.15 468.511 672.68 465.234 678.572L464.801 679.246C463.28 676.866 465.134 662.236 465.931 658.888C466.791 655.27 468.897 654.636 471.798 652.868Z"/><path fill="#FAF7EE" d="M146.044 651.404C149.164 652.551 152.167 654.878 154.975 656.679C156.151 663.515 157.379 670.337 158.157 677.232C152.641 669.948 149.3 659.884 146.044 651.404Z"/><path fill="#6ABA9A" d="M154.85 608.841C155.983 608.98 155.849 609.123 156.574 609.918C153.216 615.17 148.62 617.092 146.085 623.388C145.5 622.687 144.856 621.949 144.411 621.15C143.122 618.836 143.391 618.057 144.019 615.63C146.424 612.268 151.209 610.607 154.85 608.841Z"/><path fill="#15324E" d="M1936.54 499.028C1937.78 498.933 1938.87 499.502 1940 499.951C1944.21 508.302 1946.18 519.42 1948.83 528.538L1966.3 588.183L2039.42 836.349C2031.53 854.852 2025.7 874.195 2017.68 892.683C1971.88 906.687 1924.3 916.807 1877.89 928.721L1812.07 945.672C1800.66 948.636 1789.03 952.485 1777.46 954.516C1775.34 954.889 1773.77 954.646 1771.84 953.696C1767.04 934.339 1760.7 915.13 1755.22 895.927L1723.77 784.529C1703.83 714.18 1685.44 643.201 1664.25 573.23C1675.15 569.141 1687.18 566.756 1698.48 563.899C1717.41 559.183 1736.31 554.314 1755.17 549.293C1815.78 533.077 1876.24 516.322 1936.54 499.028Z"/><path fill="#FAF7EE" d="M1930.41 614.108L1932.49 614.916C1944.32 651.102 1953.69 688.203 1964.47 724.728L1989.15 810.115C1996.6 835.419 2004.61 860.661 2011.17 886.208C1978.58 895.365 1945.52 903.108 1912.7 911.393L1782.23 945.183L1779.49 945.669C1778.99 945.26 1778.35 944.972 1777.98 944.44C1774 938.795 1759.35 879.639 1755.7 866.717C1737.44 803.562 1719.54 740.303 1702 676.944L1930.41 614.108Z"/><path fill="#15324E" d="M1925.3 626.112C1926.61 626.101 1927.43 626.988 1928.4 627.752C1934.96 647.238 1939.92 667.551 1945.53 687.357L1975.65 792.663L1991.15 845.322C1993.63 853.66 1997.74 863.383 1998.49 871.995C1996.95 874.416 1993.62 875.033 1990.9 875.884C1960.35 885.438 1928.15 892.087 1897.06 899.77C1858.57 909.445 1820.17 919.497 1781.87 929.923L1778.6 918.793C1773.41 897.286 1766.4 875.945 1760.25 854.665L1729.96 748.076C1725.28 731.663 1714.63 701.891 1713.82 686.693C1718.78 681.409 1755.98 673.336 1766.23 670.079C1768.45 675.83 1769.75 681.898 1771.21 687.877C1803.26 679.437 1835.25 670.772 1867.18 661.883C1865.65 655.843 1864.55 649.621 1863.26 643.519L1925.3 626.112Z"/><path fill="#FAF7EE" d="M1921.09 636.196L1922.86 636.958C1942.49 714.49 1967.17 791.051 1988.81 868.06L1787.9 919.65L1784.21 907.646C1774.4 879.197 1767.2 849.375 1759.02 820.393L1722.13 690.998C1734.98 687.946 1747.67 684.135 1760.34 680.417C1762.24 685.51 1763.01 693.758 1767.56 696.955C1785.09 693.708 1802.62 687.902 1819.85 683.17C1838.18 678.138 1857.34 673.895 1875.12 667.217C1877.62 662.52 1873.98 654.037 1872.59 649.098C1888.73 644.687 1904.9 640.387 1921.09 636.196Z"/><path fill="#15324E" d="M1852.01 712.331C1895.59 707.047 1935.22 738.03 1940.62 781.596C1946.01 825.162 1915.13 864.877 1871.58 870.382C1827.87 875.907 1787.98 844.89 1782.57 801.166C1777.15 757.443 1808.27 717.633 1852.01 712.331Z"/><path fill="#FAF7EE" d="M1852.32 720.393C1891.39 715.314 1927.23 742.744 1932.53 781.785C1937.83 820.826 1910.6 856.818 1871.59 862.338C1832.27 867.904 1795.92 840.41 1790.58 801.055C1785.24 761.701 1812.94 725.513 1852.32 720.393Z"/><path fill="#15324E" d="M1874.41 795.421C1877.22 795.816 1879.84 796.578 1882.28 798.043C1887.68 801.282 1891.42 805.814 1892.89 811.975C1894.56 818.95 1893.04 826.544 1889.23 832.572C1884.09 840.715 1877.83 843.381 1868.87 845.423C1863.66 845.248 1855.08 843.331 1850.84 840.176C1848.72 838.6 1848.78 837.713 1848.45 835.275C1851.65 825.474 1863.78 824.897 1868.22 817.404C1872.21 810.676 1869.63 801.25 1874.41 795.421Z"/><path fill="#FAF7EE" d="M1879.46 805.159C1882.85 807.499 1885.13 811.413 1885.94 815.431C1886.89 820.161 1885.29 824.68 1882.59 828.539C1878.11 834.949 1873.24 836.912 1865.77 838.272C1863.26 837.57 1861.23 837.154 1859.3 835.281C1859.73 833.619 1859.72 833.708 1861.12 832.719C1872.45 824.748 1877.06 818.894 1879.46 805.159Z"/><path fill="#15324E" d="M1819.62 763.68C1826.56 761.78 1833.98 763.77 1839.04 768.885C1844.09 773.999 1846 781.443 1844.02 788.357C1842.04 795.271 1836.48 800.58 1829.49 802.243C1818.92 804.756 1808.29 798.333 1805.6 787.81C1802.91 777.287 1809.15 766.549 1819.62 763.68Z"/><path fill="#FAF7EE" d="M1822.84 770.581C1829.5 769.425 1835.85 773.82 1837.11 780.456C1838.38 787.092 1834.09 793.515 1827.47 794.887C1823.1 795.795 1818.57 794.273 1815.64 790.905C1812.7 787.538 1811.8 782.848 1813.3 778.637C1814.79 774.425 1818.44 771.346 1822.84 770.581Z"/><path fill="#15324E" d="M1822.21 778.604C1823.72 777.511 1825.71 777.347 1827.37 778.18C1829.04 779.012 1830.1 780.702 1830.13 782.564C1830.16 784.426 1829.15 786.149 1827.52 787.035C1825.2 788.286 1822.32 787.529 1820.92 785.304C1819.52 783.078 1820.08 780.148 1822.21 778.604Z"/><path fill="#15324E" d="M1887.11 745.7C1897.62 743.995 1907.57 750.97 1909.55 761.427C1911.53 771.885 1904.83 782.019 1894.43 784.279C1887.45 785.796 1880.2 783.405 1875.49 778.035C1870.78 772.666 1869.36 765.164 1871.77 758.444C1874.19 751.724 1880.06 746.844 1887.11 745.7Z"/><path fill="#FAF7EE" d="M1886.63 753.567C1893.08 751.628 1899.87 755.31 1901.76 761.769C1903.66 768.229 1899.93 774.995 1893.45 776.842C1887.05 778.67 1880.36 774.986 1878.49 768.591C1876.61 762.196 1880.25 755.487 1886.63 753.567Z"/><path fill="#15324E" d="M1889.18 760.586C1891.67 759.89 1894.27 761.243 1895.13 763.681C1895.99 766.118 1894.81 768.804 1892.44 769.822C1890.75 770.543 1888.81 770.267 1887.39 769.107C1885.98 767.947 1885.33 766.095 1885.7 764.304C1886.08 762.513 1887.42 761.08 1889.18 760.586Z"/><path fill="#15324E" d="M1847.04 648.212C1849.27 649.373 1849.58 649.445 1850.66 651.675L1849.65 654.067C1841.82 660.521 1821.27 663.786 1811.26 666.396L1808.99 665.438C1807.63 663.425 1807.47 663.405 1807.8 661.018C1813.6 655.091 1838.24 650.298 1847.04 648.212Z"/><path fill="#15324E" d="M1793.83 662.137C1796.05 663.335 1796.77 663.551 1797.99 665.704L1796.95 667.961C1792.87 671.046 1787.78 672.356 1782.98 673.945C1782.7 673.81 1782.4 673.706 1782.13 673.539C1780.17 672.319 1779.46 671.268 1778.84 669.193L1779.85 667.388C1783.94 664.442 1789.03 663.445 1793.83 662.137Z"/><path fill="#FAF7EE" d="M1925.78 510.192L1926.45 510.548C1927.18 513.276 1921.01 522.1 1919.38 525.168C1917.57 528.591 1917.18 530.466 1918.3 534.159L1919.78 534.886C1926.6 532.375 1932.49 518.696 1935.93 512.538L1952 568.829L1935.92 596.659C1932.75 586.212 1929.25 575.825 1926.38 565.295C1925.07 560.521 1924.58 554.554 1922.72 550.086C1921.86 548.038 1920.46 546.07 1918.68 544.729C1917.09 543.523 1916.93 543.573 1914.96 543.824C1911.16 550.849 1927 596.094 1929.86 605.714C1881.17 619.722 1831.99 632.748 1783.03 645.806L1700.09 668.788C1692.54 646.724 1687.06 623.877 1681.16 601.331C1686.63 591.872 1691.72 582.145 1696.99 572.567C1773.67 553.016 1849.58 531.442 1925.78 510.192Z"/><path fill="#15324E" d="M1897.42 545.126C1898.38 544.908 1899.52 544.596 1900.51 544.655C1902.87 544.794 1903.5 545.927 1904.75 547.64L1904.29 549.692C1901.93 551.992 1898.9 553.056 1895.82 554.064C1882.79 558.338 1868.95 560.977 1855.7 564.707C1802.96 579.562 1749.7 592.56 1696.97 607.476C1695.11 607.887 1693.41 607.857 1691.51 607.809C1689.57 606.51 1689.09 606.593 1688.57 604.231C1690.03 601.801 1691.87 600.72 1694.45 599.779C1717.88 591.268 1752.03 583.774 1777.01 577.244L1897.42 545.126Z"/><path fill="#15324E" d="M1856.06 538.185C1857.17 538.028 1858.42 537.788 1859.53 537.889C1862.06 538.118 1862.67 539.366 1864.05 541.23L1863.66 543.049C1861.67 545.137 1859.17 546.085 1856.5 547.012C1846.04 550.635 1834.79 552.65 1824.12 555.628C1796.91 563.425 1769.6 570.877 1742.21 577.983C1741.56 578.173 1740.88 578.395 1740.2 578.439C1737.57 578.607 1737.05 578.253 1735.17 576.617L1735.17 574.189C1736.46 572.106 1738.06 570.7 1740.38 569.848C1751.11 565.892 1763.63 563.876 1774.76 560.762C1801.84 553.194 1828.84 545.179 1856.06 538.185Z"/><path fill="#15324E" d="M1845.92 571.377C1846.51 571.609 1846.73 571.671 1847.32 572.047C1852.26 575.173 1852.86 586.539 1853.79 591.863C1838.69 598.098 1820.71 601.271 1804.89 605.6C1790.63 609.501 1775.3 615.292 1760.75 617.432C1758.36 615.928 1757.85 613.326 1757.05 610.792C1756.24 607.968 1754.57 603.616 1755.14 600.686C1755.62 598.264 1756.39 597.639 1758.34 596.51L1760.8 597.522C1763.6 600.161 1764.08 604.452 1764.89 608.07L1844.52 586.388C1843.82 583.845 1842.45 580.553 1842.33 577.963C1842.18 574.94 1844.09 573.414 1845.92 571.377Z"/><path fill="#FAF7EE" d="M1954.6 579.797C1958.7 584.118 2020.92 802.095 2030.77 836.13C2026.24 848.256 2021.55 860.322 2016.71 872.327C2011.71 863.886 2000.71 819.242 1997.23 807.28L1939.42 608.367C1943.78 598.561 1949.42 589.194 1954.6 579.797Z"/><path fill="#FAF7EE" d="M1683.8 576.246L1684.85 576.946C1684.08 581.616 1680.66 586.713 1677.59 590.25L1673.99 578.641C1677.13 577.609 1680.58 577.018 1683.8 576.246Z"/><path fill="#15324E" d="M665.682 88.2874C672.858 87.7191 679.835 88.9276 686.092 92.5712C689.942 94.8526 693.47 97.638 696.583 100.854C710.504 115.027 722.827 131.378 736.107 146.234C756.34 168.868 781.632 194.622 799.439 218.481C803.006 223.261 806.072 228.575 807.508 234.406C809.384 242.025 807.561 248.808 803.546 255.454C800.634 260.276 796.354 264.129 792.18 267.852C776.464 281.871 759.712 294.904 743.617 308.502L645.062 391.994L586.686 441.534C576.299 450.332 566.057 459.743 555.06 467.753C549.745 471.625 545.009 473.424 538.701 474.969C532.686 475.213 527.597 475.172 522.207 472.208C518.095 469.947 514.388 466.977 511.07 463.675C494.838 447.522 480.367 428.909 464.967 411.883L426.01 368.47C418.581 360.237 410.5 352.224 403.708 343.479C400.122 338.862 397 333.734 395.399 328.074C393.409 321.036 394.497 313.671 398.246 307.377C404.713 296.521 464.376 250.092 479.484 237.312C516.808 205.563 554.326 174.043 592.036 142.753C611.255 126.685 630.321 108.925 650.629 94.3016C655.315 90.9269 660.174 89.6447 665.682 88.2874Z"/><path fill="#FAF7EE" d="M663.065 97.218C666.117 97.0023 669.337 96.68 672.392 96.9086C688.783 98.1352 716.224 136.264 727.099 148.896L458.922 376.255L450.358 383.305C439.127 370.621 411.256 344.215 405.016 330.341C402.743 325.288 401.701 319.445 403.839 314.165C405.112 311.019 407.184 308.454 409.65 306.164C436.658 281.084 466.941 258.77 495.176 235.037L603.937 143.549C617.277 132.407 648.608 103.237 663.065 97.218Z"/><path fill="#15324E" d="M592.869 176.979C597.268 176.925 600.512 177.984 603.73 181.018C607.011 184.111 608.133 188.511 608.179 192.89C608.377 211.334 596.303 231.288 583.589 243.892C564.861 262.456 538.173 273.739 511.769 273.706C508.176 273.339 504.525 272.885 501.137 271.56C498.229 270.421 495.402 268.619 494.203 265.601C493.18 263.025 493.444 259.402 494.669 256.917C499.683 246.741 570.656 189.78 583.306 181.354C586.336 179.337 589.397 178.041 592.869 176.979Z"/><path fill="#FAF7EE" d="M594.031 184.668C595.326 184.974 596.213 185.305 597.176 186.27C599.53 188.63 600.169 192.392 600.135 195.594C599.971 211.017 588.059 228.51 577.398 238.915C558.404 257.455 534.495 265.63 508.311 265.372C505.588 264.592 504.245 264.389 502.198 262.333L502.451 259.995C509.795 248.913 581.045 191.641 594.031 184.668Z"/><path fill="#FAF7EE" d="M768.656 195.948C775.828 202.93 782.117 210.741 788.529 218.411C780.641 226.432 771.419 233.455 762.778 240.659L718.933 277.276L584.264 391.219C563.961 408.396 542.771 425.016 523.014 442.766C519.559 445.87 515.775 449.146 515.542 453.974L517.152 455.006C520.493 454.717 522.866 453.223 525.52 451.281C533.603 445.369 541.061 438.139 548.655 431.59C561.001 421.033 573.409 410.55 585.878 400.139L738.168 271.35C755.097 257.097 775.976 237.028 794.146 225.698C794.386 225.827 794.633 225.944 794.866 226.086C797.747 227.831 799.238 235.693 799.987 238.752L799.946 239.198C799.42 244.77 798.32 250.023 794.533 254.343C787.028 262.905 776.927 270.083 768.171 277.411L723.725 314.948L564.536 449.531C555.824 456.781 545.378 468.428 532.984 467.039C518.19 465.381 501.454 441.051 492.653 429.805C539.513 387.23 589.044 346.978 637.376 306.074C680.842 269.288 723.783 230.992 768.656 195.948Z"/><path fill="#FAF7EE" d="M732.141 155.706C737.085 157.372 744.839 168.435 748.532 172.603C710.898 206.416 669.415 239.793 630.454 272.416L472.592 405.543L470.466 405.491C465.183 400.781 460.72 394.914 456.154 389.509C547.728 311.078 639.725 233.143 732.141 155.706Z"/><path fill="#FAF7EE" d="M754.039 179.003C757.204 182.419 760.131 186.146 763.148 189.7C708.714 236.622 653.091 282.231 598.277 328.722C561.069 360.28 524.671 393.387 486.615 423.853C483.006 420.569 479.735 416.401 476.441 412.773C530.189 365.801 585.842 320.701 640.338 274.569L711.206 214.513C725.312 202.563 739.212 190.036 754.039 179.003Z"/><path fill="#15324E" d="M1066.69 209.022C1067.44 209.015 1068.18 209.023 1068.92 209.075C1075.05 209.503 1085.09 212.509 1089.02 217.452C1090.63 219.473 1090.41 220.232 1090.15 222.63C1086.33 228.265 1077.6 231.354 1071.98 235.128C1068.93 237.175 1065.44 240.419 1064.93 244.276C1064.63 246.535 1065.45 249.19 1066.09 251.332C1069.46 262.566 1076.82 258.421 1083.9 264.618C1089.48 269.503 1093.82 276.844 1098.1 282.871C1115.2 287.457 1131.73 292.238 1147.02 301.471C1204.37 336.118 1260.13 425.859 1293.03 482.912C1299.46 494.061 1303.99 504.036 1300.43 517.098C1298.55 524.011 1295.6 527.517 1290.08 532.047C1277.69 542.225 1260.34 549.668 1246.24 557.413C1222.61 570.416 1199.08 583.584 1175.64 596.917C1171.21 599.669 1166.56 602.16 1161.44 603.309C1153.6 605.065 1145.8 603.891 1139 599.559C1117.31 585.734 1069.7 473.1 1059.54 445.786C1051.63 424.519 1044.53 402.973 1039.58 380.809C1034.15 356.488 1035.42 335.152 1048.9 313.888C1044.78 308.104 1038.79 301.544 1036.3 294.923C1034.72 290.737 1035.91 288.468 1037.68 284.631C1036.94 281.959 1036.19 279.193 1034.8 276.776C1032.75 273.212 1029.85 270.495 1025.77 269.514C1013.98 266.677 983.693 288.591 972.443 295.192C967.037 287.774 961.779 279.226 957.647 271.039C977.869 258.624 998.546 246.852 1019 234.816C1034.02 225.972 1050.05 214.288 1066.69 209.022Z"/><path fill="#F5D77E" d="M1256.97 442.834C1257.25 442.86 1257.53 442.84 1257.79 442.913C1261.1 443.829 1286.72 487.236 1289.68 493.212C1293.49 500.882 1294.94 509.018 1292.05 517.262C1290.66 521.239 1287.67 524.525 1284.26 526.904C1266.8 539.067 1245.25 548.71 1226.47 559.127C1205.83 570.579 1185.25 584.019 1163.95 593.989C1156.57 597.442 1151.91 596.404 1144.41 593.688C1128.85 583.03 1112.24 543.507 1103.19 525.341C1116.87 518.836 1130.24 511.2 1143.62 504.092C1181.56 483.948 1218.94 462.773 1256.97 442.834Z"/><path fill="#15324E" d="M1245.06 510.36C1247.69 510.035 1250.5 509.975 1253.15 510.216C1256.01 510.478 1259.66 511.643 1261.53 513.931L1261.11 515.472C1256.16 520.939 1245.77 518.166 1239.05 519.493C1213.85 524.468 1188.43 539.409 1173.96 560.837C1173.1 562.619 1171.91 565.327 1170.3 566.536C1168.74 567.701 1168.34 567.513 1166.5 567.119L1165.45 564.76C1165.64 559.397 1167.74 554.558 1171.02 550.344C1188.04 528.496 1217.97 513.901 1245.06 510.36Z"/><path fill="#FAF7EE" d="M1191.31 351.938C1201.85 355.754 1245.29 421.609 1253.45 434.924C1233.16 446.366 1212.7 457.474 1192.05 468.244C1197.3 458.171 1202.66 447.739 1205.91 436.825C1209.82 423.691 1208.98 411.913 1202.25 399.824C1199.61 395.096 1194.67 388.304 1188.98 387.106C1177.2 384.624 1144.16 400.554 1133.47 407.312C1127.53 411.068 1126.72 414.521 1125.2 421.117C1114.94 424.459 1104.8 426.005 1094.02 425.903C1092.11 433.346 1089.6 440.927 1091.25 448.648L1091.4 449.317C1092.41 454.001 1096.11 457.729 1099.1 461.338L1099.63 461.876C1118.84 481.272 1149.21 477.958 1174.23 478.201C1149.67 491.808 1124.91 505.062 1099.97 517.959C1085.29 492.459 1069.09 451.721 1060.7 423.254L1191.31 351.938Z"/><path fill="#FAF7EE" d="M1098.4 291.957C1116.89 296.537 1131.55 302.304 1148.09 311.645C1130.81 333.941 1113.68 347.076 1087.42 357.333C1073.46 361.767 1059.67 363.88 1045.06 364.419C1044.68 356.419 1044.38 348.557 1045.93 340.652C1050.99 314.74 1077.68 305.813 1098.4 291.957Z"/><path fill="#FAF7EE" d="M1154.47 316.798C1166.5 324.604 1176.27 335.143 1186.38 345.197L1073.39 406.988L1057.95 415.304C1052.14 402.41 1048.67 387.356 1046.78 373.373C1049.25 373.31 1051.67 373.105 1054.12 372.806C1097.03 367.568 1127.81 350.813 1154.47 316.798Z"/><path fill="#FAF7EE" d="M1067.36 217.018C1070.53 217.426 1075.17 217.926 1077.42 220.292C1075.77 225.488 1061.54 229.429 1058.39 240.171C1055.47 250.118 1061.05 259.233 1065.72 267.561C1058.56 271.194 1051.76 276.079 1044.98 280.403C1040.44 273.024 1035.3 262.89 1026.3 260.343C1020.15 258.602 1014.78 261.193 1009.45 264.057C1001.54 268.956 993.688 273.693 985.367 277.884L979.335 267.786C1008.28 250.835 1037.06 231.298 1067.36 217.018Z"/><path fill="#FAF7EE" d="M1188.77 428.422C1192.35 427.845 1196.36 428.069 1200 427.973C1195.52 443.444 1189.74 456.557 1181.15 470.185C1161.76 469.675 1139.09 471.462 1120.45 465.666C1115.56 463.837 1110.98 460.804 1106.46 458.212C1119.57 457.893 1165.84 461.285 1174.12 457.31C1178.65 450.925 1175 436.823 1173.86 429.519L1188.77 428.422Z"/><path fill="#FAF7EE" d="M1136.41 413.629C1146.32 417.116 1155.31 422.344 1164.56 427.292C1165.77 431.841 1166.68 436.531 1167.53 441.157C1168.11 444.343 1168.88 448.034 1166.92 450.849L1164.25 451.094C1156.99 451.092 1149.66 450.366 1142.42 449.885C1138.26 442.735 1134.07 435.678 1130.83 428.044C1132.48 423.108 1134.16 418.336 1136.41 413.629Z"/><path fill="#FAF7EE" d="M1182.12 395.044C1184.38 394.888 1186.36 395.071 1188.41 396.105C1196.23 400.035 1198.88 412.355 1200.96 420.051C1190.5 420.151 1180.03 420.462 1169.58 420.985C1162.7 416.512 1155.09 412.828 1147.87 408.901C1159.03 403.662 1170.46 399.036 1182.12 395.044Z"/><path fill="#FAF7EE" d="M1122.01 431.301C1125.08 432.451 1130.68 446.144 1132.43 449.669C1125.48 449.597 1118.5 449.786 1111.54 449.858L1098.79 450.018C1098.8 444.749 1099.14 439.703 1099.74 434.474C1107.37 433.984 1114.53 432.847 1122.01 431.301Z"/><path fill="#FAF7EE" d="M1055.47 282.352C1060.98 284.434 1066.19 293.384 1068.79 298.556C1069.7 300.361 1069.28 300.613 1068.68 302.44C1067.73 302.376 1066.47 302.265 1065.63 301.79C1061.72 299.582 1055.82 289.643 1054.38 285.582C1054.04 284.634 1055.04 283.264 1055.47 282.352Z"/><path fill="#FAF7EE" d="M1066.42 275.484C1071.53 277.499 1076.01 284.773 1078.22 289.737C1079.6 292.847 1079.73 293.34 1078.47 296.577C1074.41 294.623 1069.98 286.776 1067.79 282.822C1066.07 279.708 1065.41 278.97 1066.42 275.484Z"/><path fill="#FAF7EE" d="M1044.16 289.598L1047.42 290.584C1051.8 295.68 1055.43 300.492 1058.23 306.647L1057.03 309.243C1054.11 308.341 1052.15 305.109 1050.39 302.742C1047.62 299.014 1043.49 294.226 1044.16 289.598Z"/><path fill="#FAF7EE" d="M1076.31 269.676L1079.38 270.976C1083.29 275.568 1090.2 283.544 1090.18 289.749C1089.14 289.476 1088.11 289.082 1087.31 288.349C1083.53 284.923 1076.45 274.715 1076.31 269.676Z"/><path fill="#FAF7EE" d="M971.622 271.523C973.939 272.988 976.19 276.688 976.965 279.282C977.814 282.126 977.518 282.637 976.106 285.24C973.535 282.224 969.497 278.404 969.483 274.19C969.48 273.299 970.984 272.179 971.622 271.523Z"/><path fill="#15324E" d="M693.578 487.378C707.127 485.356 726.275 493.151 737.879 499.556C741.559 501.588 743.869 502.945 745.045 507.037C741.632 513.066 718.671 519.377 711.671 522.532C716.095 535.506 722.774 547.54 727.962 560.24C732.748 571.956 738.13 591.22 744.337 601.433C754.714 618.507 770.188 633.493 782.512 649.255C805.005 678.023 823.669 710.581 838.747 743.786C849.043 766.461 883.031 852.653 874.554 874.242C872.316 879.943 867.913 883.765 862.782 886.865C853.574 892.428 841.768 895.618 831.656 899.434C816.396 905.193 801.371 911.146 786.303 917.367C780.671 919.692 773.99 919.756 768.372 917.357C763.514 915.283 759.582 911.555 756.647 907.22C747.999 894.447 733.885 853.015 727.221 836.314C711.311 794.841 694.329 753.791 678.629 712.231C673.533 698.74 663.802 677.98 662.569 664.27C660.612 642.505 680.683 630.436 679.388 618.807C678.698 618.575 678.001 618.342 677.329 618.062C676.548 617.736 674.829 616.817 674.345 616.095C671.969 612.553 670.348 606.622 668.648 602.611C663.809 591.229 658.909 579.874 653.949 568.545C646.582 563.835 639.405 561.073 631.033 558.736C635.294 576.127 636.764 597.303 630.55 614.429C627.693 622.301 623.026 636.147 614.867 639.724C612.218 640.885 608.657 640.796 605.997 639.663C594.525 634.775 606.942 607.78 607.225 598.23C607.573 586.524 605.096 576.309 601.139 565.378C592.451 568.382 576.609 577.838 567.751 576.293C565.676 575.932 563.792 574.865 562.619 573.085C559.83 568.852 551.71 545.081 552.549 540.607C562.286 533.318 594.016 523.31 606.782 518.354C631.544 508.742 656.277 497.836 681.565 489.723C685.523 488.454 689.444 487.786 693.578 487.378Z"/><path fill="#FAF7EE" d="M729.639 597.882L731.42 597.927C745.694 617.849 762.055 635.769 776.705 655.35C810.899 701.414 837.103 752.901 854.219 807.656C858.595 821.32 872.539 861.287 865.845 873.622C861.501 881.627 788.794 907.878 776.107 911.706C774.684 911.191 773.275 910.636 771.884 910.04C759.599 904.708 752.289 876.732 747.269 864.198L761.242 858.972C787.632 848.516 821.167 838.679 845.737 826.73C836.718 790.724 800.149 703.251 773.546 676.954C745.729 690.008 715.951 700.093 687.078 710.565C680.882 695.42 665.363 665.339 671.844 649.443C674.256 643.526 680.538 639.066 683.712 633.248C687.099 627.042 688.952 621.963 689.177 614.804C702.809 609.515 716.301 603.873 729.639 597.882Z"/><path fill="#F5D77E" d="M770.676 687.036L772.271 687.421C793.289 708.195 825.988 792.266 835.733 822.279L754.764 852.609L744.195 856.57C726.245 810.284 706.941 764.444 689.873 717.831C716.973 709.912 744.438 697.593 770.676 687.036Z"/><path fill="#15324E" d="M738.003 796.225C737.774 796.122 737.545 796.022 737.317 795.917C733.95 794.357 732.466 792.193 731.26 788.736C727.826 778.885 729.271 766.274 733.929 757.067C742.616 739.892 759.396 732.786 776.67 727.304C778.302 726.786 779.628 726.465 781.363 726.633C785.066 729.786 785.226 737.866 785.597 742.478C786.989 759.764 785.829 776.992 774.043 790.859C767.223 798.881 753.854 807.364 742.909 808.266C740.74 808.445 740.418 808.13 738.675 807.009C738.42 804.401 739.288 802.827 740.83 800.779C740.335 798.582 739.431 797.842 738.003 796.225Z"/><path fill="#6ABA9A" d="M738.003 796.225C745.083 784.676 767.451 767.624 768.122 755.279L767.08 753.587C765.138 753.145 764.001 753.075 762.107 753.734C760.36 756.32 759.913 759.374 758.173 761.795C753.28 768.604 744.564 774.408 738.558 780.58C736.847 776.397 737.066 770.275 738.821 766.155C744.62 752.537 753.949 744.387 767.596 738.988C770.589 737.814 773.596 736.677 776.618 735.578C779.697 751.448 779.863 769.193 770.302 783.063C764.104 792.055 752.898 798.904 742.037 800.626C741.637 800.689 741.234 800.737 740.83 800.779C740.335 798.582 739.431 797.842 738.003 796.225Z"/><path fill="#FAF7EE" d="M688.89 496.221C705.132 495.028 716.45 498.43 730.607 505.845C722.941 508.853 709.797 511.653 704.502 517.904C701.348 525.313 708.188 537.776 710.806 544.909C694.471 551.376 678.318 558.437 662.074 565.144C657.041 560.487 650.984 557.066 644.945 553.914C637.689 551.073 630.361 549.355 622.738 547.834C614.709 550.353 606.86 553.767 599.025 556.842C595.741 549.378 593.192 541.632 590.547 533.925C609.236 525.711 628.593 518.677 647.615 511.247C660.977 506.027 674.898 499.407 688.89 496.221Z"/><path fill="#6ABA9A" d="M620.478 557.901L622.423 558.691C623.979 563.703 624.848 568.789 625.417 573.997C627.164 589.988 625.624 616.995 614.628 629.756C612.586 632.126 611.406 632.022 608.458 632.214C608.384 628.238 610.783 622.584 611.774 618.583C617.035 597.353 617.141 582.201 608.65 561.875L620.478 557.901Z"/><path fill="#6ABA9A" d="M581.254 536.954C581.386 536.991 581.528 537.003 581.651 537.065C584.758 538.617 590.151 555.443 591.883 559.475C584.97 562.492 577.872 565.181 570.878 568.015C567.323 566.03 562.661 549.251 561.031 544.817L581.254 536.954Z"/><path fill="#6ABA9A" d="M714.628 551.991C719.338 556.876 727.174 580.388 730.249 587.838C729.455 590.073 727.398 590.5 725.346 591.568L723.453 590.644C717.228 581.107 712.936 567.232 709.372 556.396C710.142 553.768 712.311 553.298 714.628 551.991Z"/><path fill="#6ABA9A" d="M700.255 557.85C705.688 567.271 711.07 583.362 715.632 593.877C714.521 596.37 712.363 596.938 710.024 598.231C706.294 596.163 696.974 567.933 695.145 562.054C696.329 559.644 697.991 559.166 700.255 557.85Z"/><path fill="#6ABA9A" d="M685.565 563.847C689.188 567.212 698.059 593.45 700.472 599.904C699.352 602.284 697.354 602.691 695.057 603.843C692.632 602.318 681.765 572.239 679.986 567.754C681.396 565.406 683.16 565.018 685.565 563.847Z"/><path fill="#6ABA9A" d="M669.896 569.458C670.153 569.693 670.504 569.991 670.735 570.271C673.766 573.955 686.359 602.691 685.88 606.387C685.695 607.811 683.153 609.184 681.987 610.077C676.666 604.426 669.226 582.236 666.165 573.998C666.599 571.384 667.909 570.982 669.896 569.458Z"/><path fill="#15324E" d="M1562.93 119.043C1566.38 118.76 1569.55 118.639 1572.87 119.775C1577.3 121.291 1581.72 124.388 1583.72 128.723C1586.35 134.413 1583.74 141.035 1581.79 146.559C1572.23 173.71 1560.16 200.534 1549.59 227.361L1473.53 418.767L1334.42 776.968C1350.06 783.545 1384.17 797.705 1391.45 814.042C1395.22 822.486 1389.53 833.241 1386.59 841.318C1392.71 870.46 1395.9 901.41 1389.99 930.88C1389.14 935.119 1388.18 939.119 1384.38 941.642C1375.16 942.197 1288.21 907.121 1272.13 901.022L1191.71 870.435C1180.23 866.068 1165.85 862.347 1155.61 855.807C1155.06 853.725 1154.83 852.87 1155.48 850.755C1160.19 835.417 1180.74 810.327 1193.08 800.173C1200.26 794.265 1209.12 788.878 1215.03 781.7C1221.55 773.785 1220.47 760.339 1230.61 755.041C1246.82 746.567 1283.43 756.685 1299.84 761.814C1303.55 751.133 1308.77 740.639 1313.01 730.121L1346.04 648.598L1428.84 440.189L1508.87 238.889L1537.8 165.781C1542.68 153.487 1547.12 140.569 1552.7 128.606C1554.97 123.733 1558.3 121.529 1562.93 119.043Z"/><path fill="#6ABA9A" d="M1225.74 780.146C1275.29 801.971 1326.45 822.118 1378.03 838.585C1383.4 870.988 1387.09 900.178 1380.57 932.926L1361.07 925.358C1362.99 917.869 1364.52 910.374 1365.43 902.692C1366.45 894.061 1368.52 855.405 1363.98 849.625C1361.28 848.888 1360.81 848.893 1358.13 849.693C1355.41 854.086 1358.05 881.999 1357.62 889.426C1356.97 900.704 1355.3 911.668 1352.31 922.561C1344.64 919.621 1336.93 916.768 1329.19 914.003C1333.88 893.909 1338.13 874.432 1339.22 853.752C1339.5 848.495 1340.76 843.122 1337.02 838.965C1334.63 838.334 1334.53 838.106 1332.38 839.272C1328.95 846.62 1329.57 867.193 1328.29 876.291C1326.65 888.036 1324.08 899.352 1320.87 910.751C1312.81 907.4 1304.74 904.345 1296.46 901.555C1301.38 888.122 1314.56 844.02 1312.53 831.345C1310.75 829.55 1310.61 829.559 1308.08 829.295C1307.62 829.583 1306.29 830.194 1306.01 830.579C1303.54 833.978 1296.45 871.033 1294.1 879.569C1292.45 885.823 1290.17 891.964 1288.09 898.092L1259.99 887.681C1265.56 873.024 1271.4 858.524 1278.46 844.51C1281.24 838.973 1287.8 830.259 1288.82 824.649C1288.94 823.98 1288.6 822.65 1288.52 821.927L1286.68 820.888C1285.64 820.96 1284.56 821.081 1283.59 821.492C1273.79 825.667 1256.3 873.938 1252.15 884.311C1243.63 881.28 1235.13 878.156 1226.68 874.942C1231.9 861.04 1239.91 846.697 1248.93 834.917C1253.09 829.49 1260.87 822.304 1263.48 816.239C1264.18 814.621 1263.81 814.023 1263.27 812.466C1260.76 811.321 1260.33 811.502 1257.58 812.013C1243.17 821.851 1225.86 855.211 1218.18 871.369L1194.93 863.043C1199.83 850.552 1208.27 838.12 1216.85 827.868C1223.02 820.492 1236.51 811.48 1239.22 802.49L1237.18 799.764C1237.01 799.802 1236.83 799.829 1236.66 799.88C1217.01 805.727 1195.81 842.18 1186.59 859.571L1164.38 851.147C1171.88 835.95 1181.53 822.262 1193.93 810.642C1204.76 800.484 1219.18 793.883 1225.74 780.146Z"/><path fill="#FAF7EE" d="M1543.68 174.322C1548.87 175.628 1554.06 178.273 1559.01 180.323L1363.12 673.516L1348.21 667.443C1367.12 617.69 1387.25 568.296 1406.78 518.776L1543.68 174.322Z"/><path fill="#F5D77E" d="M1234.85 761.17C1246.78 760.25 1258.19 760.911 1269.98 762.957C1297.55 767.74 1369.24 795.705 1385.09 818.243C1384.77 819.717 1384.42 821.185 1384.06 822.649C1383.25 825.835 1382.67 828.459 1379.8 830.15C1329.09 813.355 1277.21 794.861 1228.91 772.082C1230.12 767.92 1231.17 763.792 1234.85 761.17Z"/><path fill="#6ABA9A" d="M1564.61 126.735C1566.46 126.777 1568.85 126.68 1570.59 127.394C1572.56 128.207 1574.09 129.536 1574.88 131.557C1578.56 141.019 1566.9 162.428 1562.45 171.305L1560.64 171.864C1556.08 169.686 1551.45 167.876 1546.73 166.091C1551.47 154.061 1555.77 135.949 1564.61 126.735Z"/><path fill="#FAF7EE" d="M1332.5 704.422C1337.78 707.235 1343.36 709.344 1348.91 711.548C1345.23 722.256 1340.8 732.826 1336.73 743.4C1331.36 740.685 1325.36 738.663 1319.78 736.399C1324.23 725.826 1328.47 715.165 1332.5 704.422Z"/><path fill="#6ABA9A" d="M1316.4 743.483C1322.42 746.59 1328.82 748.82 1335.16 751.192L1326.55 773.815L1307.29 764.722C1310.66 757.834 1313.43 750.56 1316.4 743.483Z"/><path fill="#FAF7EE" d="M1340.27 684.026C1345.12 685.976 1352.25 687.833 1355.85 691.585L1355.53 695.057C1351.25 693.474 1343.23 691.312 1340.4 687.786C1339.48 686.639 1340.07 685.416 1340.27 684.026Z"/><path fill="#FAF7EE" d="M1344.59 673.941C1349.02 675.549 1357.17 677.488 1360.09 680.976L1359.57 683.84C1354.97 682.727 1347.77 680.932 1344.59 677.321C1344.06 676.708 1344.51 674.791 1344.59 673.941Z"/><path fill="#FAF7EE" d="M1335.7 695.072C1339.33 695.672 1343.52 697.186 1346.82 698.887C1349.8 700.426 1351.2 700.816 1352.21 704.002C1347.56 703.052 1341.91 701.369 1337.87 698.843C1336.02 697.687 1336.18 697.147 1335.7 695.072Z"/><path fill="#15324E" d="M216.291 139.973C226.759 139.713 229.078 145.474 235.941 146.009C242.671 146.533 247.323 140.449 255.019 143.417C261.234 145.814 263.091 151.068 265.693 156.676C271.859 169.961 278.914 152.199 294.123 157.997C300.915 160.586 301.541 165.381 304.258 171.402C305.976 175.208 307.576 175.479 311.295 176.878C315.089 178.305 318.516 180.212 320.18 184.108C322.029 188.435 321.278 193.876 320.175 198.29C317.552 208.783 312.061 219.072 307.684 228.968C302.154 241.385 296.844 253.898 291.755 266.502C293.203 265.933 294.663 265.398 296.135 264.898C302.952 262.585 310.977 260.896 317.754 264.406C320.591 265.875 322.552 268.254 323.447 271.342C324.63 275.426 323.727 282.129 321.479 285.689C313.729 297.963 288.833 310.44 276.146 327.676C259.621 350.125 250.186 378.018 241.813 404.386C238.491 414.848 235.814 426.674 230.364 436.238C227.324 436.49 224.531 435.299 221.771 434.16C203.391 426.572 185.484 416.772 167.503 408.19C161.109 405.139 152.856 402.696 147.008 398.966C144.843 397.585 144.319 396.248 143.366 393.959C143.574 388.792 147.398 383.161 149.743 378.611C162.496 352.045 176.587 326.433 187.583 299.033C170.76 313.414 157.045 332.247 145.352 350.972C141.919 356.469 130.681 378.911 126.53 381.41C125.305 382.147 124.761 382.256 123.435 381.811C118.121 380.026 62.4584 334.574 55.0694 327.819C52.7075 325.659 50.6828 323.553 49.2176 320.683C49.295 320.021 49.3318 319.533 49.6606 318.937C55.1151 309.054 91.2495 272.47 101.032 261.757C125.11 235.024 149.335 208.425 173.706 181.959C185.105 169.57 196.326 156.518 208.376 144.767C210.784 142.418 213.167 141.162 216.291 139.973Z"/><path fill="#FAF7EE" d="M217.126 147.72C218.883 147.652 220.87 147.48 222.604 147.771C225.09 148.189 225.995 149.51 227.323 151.402C229.16 164.636 199.375 183.504 193.082 194.71C191.799 196.995 192.233 198.69 192.78 201.045L194.811 202.26C203.735 201.261 231.577 161.379 240.85 154.275C243.82 152 247.822 150.041 251.666 150.81C253.6 151.196 255.513 152.517 256.547 154.207C257.885 156.395 257.446 158.64 256.272 160.794C249.615 173.01 216.639 196.2 212.723 209.18C213.079 211.603 212.949 211.907 214.745 213.514C222.517 212.997 248.192 178.809 257.598 172.427C260.422 170.512 263.327 169.148 266.805 169.82C267.736 170.572 269.211 171.421 269.702 172.504C271.126 175.654 270.662 178.383 269.171 181.37C261.227 197.29 212.957 236.505 208.678 248.526C208.381 249.36 209.201 250.451 209.577 251.242C213.57 252.626 220.531 249.981 224.917 249.582C230.505 249.072 238.285 248.873 242.858 252.649C243.678 255.07 243.686 256.234 242.551 258.603C239.624 264.71 231.522 266.735 225.689 268.861C169.971 291.115 152.524 323.652 123.141 372.321L58.5682 320.282C95.5162 278.873 133.035 237.746 170.818 197.09C186.013 180.74 200.251 162.287 217.126 147.72Z"/><path fill="#FAF7EE" d="M286.775 165.026C288.191 165.05 290.754 165.273 292.041 165.962C308.173 174.604 268.856 223.309 273.266 237.149C275.104 239.138 275.038 239.409 277.703 239.539C281.777 236.796 294.872 199.625 298.66 192.189C300.782 188.022 303.02 183.955 307.685 182.419C309.75 183.117 310.573 183.284 311.655 185.36C312.728 187.422 313.64 190.356 313.426 192.69C312.693 200.686 290.249 249.958 285.323 260.52C282.384 266.82 278.455 272.761 276.297 279.377L277.882 280.542C285.12 280.977 297.299 271.943 306.215 270.544C309.977 269.953 312.201 270.289 315.268 272.549C316.264 275.033 316.43 276.893 315.186 279.35C310.065 289.46 284.608 305.831 274.865 316.413C252.27 340.954 241.14 380.207 231.065 411.49L226.254 426.904C201.279 416.758 176.804 403.869 152.41 392.315C167.52 358.371 185.646 326.584 198.436 291.554C212.232 280.912 231.439 279.278 244.446 268.437C247.775 265.663 250.455 262.018 250.809 257.578C251.085 254.118 249.956 250.414 247.657 247.793C242.504 241.918 233.281 241.146 225.983 240.656C237.228 227.456 249.758 215.091 261.673 202.48C259.327 209.43 254.309 216.932 253.363 224.073C252.975 226.994 252.867 230.199 254.734 232.637L256.607 232.537C257.448 231.788 258.203 230.974 258.83 230.036C262.141 225.082 278.014 187.458 278.838 181.654C279.358 177.988 278.281 173.125 277.622 169.456L277.532 168.975C280.229 166.681 283.443 165.98 286.775 165.026Z"/><path fill="#15324E" d="M1989.95 211.626L1993.54 213.457C1996.27 217.459 1994.87 299.436 1994.56 310.182C1977.46 322.588 1961.19 336.437 1944.67 349.635C1901.03 384.523 1857.84 420.554 1813.03 453.933C1811.78 453.597 1810.45 452.896 1809.24 452.395C1805.65 447.476 1807.88 368.695 1807.84 355.146C1825.56 338.756 1849.34 322.206 1868.78 306.941L1989.95 211.626Z"/><path fill="#F5D77E" d="M1984.57 225.771L1985.57 226.649C1987.89 236.709 1986.28 263.175 1986.32 274.962C1966.2 291.943 1945.23 307.941 1924.63 324.331L1816.83 410.625L1816.13 410.082C1813.89 396.294 1815.76 373.477 1815.83 358.73L1984.57 225.771Z"/><path fill="#F5D77E" d="M1985.7 286.15C1986.96 292.317 1986.33 299.681 1986.38 306.01C1930.51 351.893 1872.58 395.345 1816.74 441.242C1814.68 436.384 1815.67 427.263 1815.6 421.847C1871.99 376.232 1928.7 330.999 1985.7 286.15Z"/><path fill="#15324E" d="M1289.81 147.576C1291.7 147.617 1293.49 148.026 1295.34 148.398C1299.64 153.177 1300.51 165.225 1302.53 171.63C1310.09 196.236 1329.18 215.601 1353.68 223.495C1360.15 225.573 1368.05 225.124 1374.07 228.414C1375.84 229.379 1375.82 229.546 1376.38 231.473C1372.16 237.371 1350.25 238.952 1341.98 242.854C1333.12 247.038 1323.81 254.833 1317.28 262.149C1307.74 272.839 1301.4 286.386 1298.6 300.406C1297.33 306.725 1297.21 315.573 1293.5 320.868C1292.61 320.597 1291.78 320.219 1290.93 319.839C1289.37 319.144 1288.81 318.653 1288.12 317.007C1284.21 307.595 1283.85 296.13 1280.02 286.248C1271.46 264.176 1253.81 246.887 1230.96 239.926C1223.64 237.696 1215.9 237.374 1208.85 234.271C1207.14 232.277 1207.24 232.164 1207.28 229.514C1219.15 226.229 1232.04 224.205 1243.19 218.898C1264.5 208.751 1278.39 190.03 1284.92 167.764C1286.88 161.105 1287.52 154.068 1289.81 147.576Z"/><path fill="#F5D77E" d="M1293.17 170.692C1295.18 175.991 1297.3 181.301 1299.78 186.401C1310.27 208.005 1328.26 223.072 1350.75 230.958C1350.28 231.106 1349.81 231.261 1349.34 231.425C1327.55 238.874 1308.51 254.998 1298.28 275.702C1295.58 281.181 1294.39 287.27 1291.67 292.734C1291.58 292.918 1291.48 293.099 1291.39 293.281C1290.06 289.305 1288.63 285.384 1286.92 281.555C1275.67 256.455 1257.77 241.31 1232.31 231.663C1236.33 230.249 1240.3 228.759 1244.16 226.943C1269.32 215.098 1283.88 196.51 1293.17 170.692Z"/><path fill="#15324E" d="M1562.62 728.37C1563.72 728.598 1564.74 728.837 1565.73 729.379C1570.55 732.006 1569.89 745.763 1571.57 751.421C1579.85 779.275 1598.81 801.48 1627.23 809.599C1632.09 810.988 1641.96 811.226 1645.74 813.8C1647.19 814.783 1646.95 815.979 1647.11 817.524C1646.82 817.967 1646.3 819.065 1645.92 819.355C1643.46 821.236 1629.51 823.646 1625.58 824.996C1619.4 827.102 1613.46 829.881 1607.89 833.283C1589.38 844.705 1578.13 863.175 1572.54 883.885C1570.81 890.269 1570.04 896.946 1568.25 903.285C1567.38 906.357 1565.92 906.863 1563.37 908.275C1562.56 907.408 1561.81 906.469 1561.44 905.332C1556.58 890.576 1557.14 878.555 1549.5 863.432C1540 844.637 1520.62 829.695 1500.65 823.528C1494.91 821.753 1488.64 821.534 1483.02 819.605C1481.1 818.947 1480.49 818.837 1479.56 816.936C1483.99 811.355 1504.09 809.655 1511.47 807.024C1533.83 799.051 1551.97 773.573 1557.73 751.279C1559.62 743.975 1559.37 735.121 1562.62 728.37Z"/><path fill="#F5D77E" d="M1564.46 755.768C1574.44 780.139 1588.27 802.622 1613.68 813.197C1616.94 814.537 1620.24 815.742 1623.6 816.807C1600.02 826.096 1581.23 841.018 1570.89 864.711C1569.87 867.056 1568.77 869.471 1568.01 871.914C1567.32 874.401 1566.82 876.671 1565.14 878.71C1562.58 876.732 1561.4 870.953 1560.28 867.786C1547.57 842.919 1532.94 828.614 1507.39 817.212C1531.57 807.53 1549.72 791.413 1560.17 767.165C1561.76 763.43 1563.19 759.627 1564.46 755.768Z"/><path fill="#15324E" d="M561.876 748.287C563.047 748.481 564.397 748.629 565.502 749.067C566.069 749.291 567.098 750.033 567.455 750.495C569.362 752.966 575.172 779 578.994 786.467C588.357 804.757 603.391 819.647 623.467 825.334C630.026 827.191 637.114 827.887 643.537 830.056C645.589 830.749 646.198 830.784 647.229 832.818C642.768 838.558 627.351 839.434 620.346 842.169C614.518 844.444 608.559 847.93 603.442 851.513C580.169 867.812 571.009 893.881 566.281 920.79C566.14 920.883 566.009 920.991 565.859 921.069C563.574 922.254 563.012 922.282 560.678 921.554C557.258 916.756 557.357 906.594 555.724 900.592C554.092 894.636 551.954 888.831 549.332 883.239C539.88 863.195 523.887 847.438 502.461 840.83C497.477 839.292 490.982 839.537 486.462 837.592C484.506 836.751 484.17 835.607 483.427 833.809C484.184 832.257 484.384 831.362 486.01 830.571C488.887 829.174 493.147 828.76 496.351 828.032C505.584 825.934 514.756 823.081 522.788 817.9C546.247 802.77 556.521 774.155 561.876 748.287Z"/><path fill="#F5D77E" d="M564.172 772.624C565.976 776.413 567.534 780.289 569.248 784.116C580.042 808.218 596.046 823.913 620.589 833.291C617.563 834.46 614.58 835.736 611.645 837.117C586.403 849.15 572.73 870.629 563.676 896.179L563.545 896.204C561.617 895.151 559.369 886.335 558.398 883.875C548.797 859.576 532 844.307 508.424 834.028C509.173 833.723 509.914 833.402 510.649 833.066C538.632 820.214 553.515 801.12 564.172 772.624Z"/><path fill="#15324E" d="M154.886 461.371C159.071 461.111 163.114 461.081 167.282 461.527C171.15 461.94 173.59 462.355 176.046 465.41C176.273 470.381 172.06 476.975 169.923 481.489C155.735 511.456 130.701 535.462 106.481 557.409C95.8906 567.006 84.1693 576.734 76.1621 588.683C71.7509 595.265 69.7862 601.848 67.9711 609.426C68.1732 613.703 69.2733 620.343 66.375 623.782C64.1795 624.335 64.0468 624.323 61.979 623.401C60.3396 621.147 60.0829 618.401 59.7742 615.707C58.6499 605.891 58.9311 595.729 58.944 585.86C58.9852 554.236 62.1839 523.867 82.7209 498.347C101.062 475.556 126.274 464.531 154.886 461.371Z"/><path fill="#F5D77E" d="M157.748 469.459C160.571 469.14 163.847 469.617 166.708 469.755C151.312 500.744 130.833 524.25 105.354 547.318C93.4073 558.134 80.9571 568.549 71.2445 581.508L68.8914 584.718L67.7456 584.397C67.3407 583.107 67.0375 581.803 66.956 580.449C65.4164 554.886 73.31 521.502 90.2908 501.683C107.539 481.551 131.63 471.425 157.748 469.459Z"/><path fill="#15324E" d="M879.888 267.362L882.632 268.396C885.04 270.35 885.277 272.859 886.08 275.693C893.446 301.7 905.647 319.981 931.818 329.425C937.765 331.571 945.115 331.91 950.524 334.934L950.983 336.592C947.551 342.086 924.398 347.963 917.33 352.28C896.31 365.121 889.489 385.481 884.013 408.161C883.159 408.127 882.287 408.1 881.44 407.984C880.538 407.86 878.717 407.209 878.148 406.409C873.605 400.026 873.414 381.234 862.664 367.353C846.053 345.905 818.467 343.85 813.82 337.815C813.816 337.537 813.702 335.54 813.783 335.448C814.818 334.278 844.462 325.585 851.486 320.174C864.358 310.258 871.185 295.845 875.267 280.473C876.481 275.901 876.934 271.222 879.888 267.362Z"/><path fill="#F5D77E" d="M881.614 288.791C883.658 292.355 884.985 296.254 886.963 299.859C897.811 319.628 909.996 328.834 930.468 337.475C929.124 337.922 927.799 338.423 926.496 338.978C904.571 348.24 890.894 363.375 882.016 385.271L880.697 385.393C880.506 384.903 880.312 384.414 880.114 383.927C870.883 361.099 857.643 347.213 834.856 337.583C835.708 337.272 836.552 336.939 837.387 336.584C860.789 326.6 872.187 312.018 881.614 288.791Z"/><path fill="#15324E" d="M1694.98 122.258L1698.97 122.918C1703.01 125.833 1707.32 148.652 1710.84 155.037C1718.17 168.315 1731.81 178.836 1746.05 183.761C1749.91 185.097 1754.12 185.363 1757.98 186.659C1760.32 187.443 1761.57 188.092 1762.64 190.349C1759.61 195.805 1750.66 194.564 1745.39 196.555C1740.49 198.405 1735.5 201.303 1731.1 204.147C1712.07 216.456 1705.28 235.049 1700.72 256.326L1696.6 255.734C1693.8 253.471 1692.84 247.917 1691.78 244.539C1684.15 220.31 1674.99 205.959 1650.79 196.524C1646.16 194.718 1640.15 194.657 1635.91 192.321C1634.12 191.339 1634.2 191.062 1633.67 189.217C1637.45 183.069 1655.16 182.161 1662.2 177.892C1683.52 164.951 1689.22 144.886 1694.98 122.258Z"/><path fill="#FAF7EE" d="M1697.59 142.982C1699.42 146.042 1700.3 149.529 1701.79 152.762C1710.44 171.558 1723.06 182.955 1742.23 190.221L1741.73 190.402C1719.62 198.4 1707.79 214.139 1698.08 234.801C1696.54 233.87 1685.87 213.026 1681.8 208.439C1674.18 199.835 1665.21 194.734 1654.97 189.77C1677.55 179.099 1688.23 165.871 1697.59 142.982Z"/><path fill="#15324E" d="M1007.85 779.41L1012.34 780.384C1016.99 784.331 1019.75 799.412 1022.31 805.507C1032.5 829.774 1048.76 831.617 1069.63 840.845C1072.23 841.995 1072.85 842.619 1073.83 845.156C1071.79 850.633 1059.15 851.681 1053.82 853.663C1050.04 855.07 1046.34 857.279 1042.99 859.536C1024.27 872.164 1018.51 890.559 1014.4 911.622C1012.55 911.748 1011.34 911.593 1009.61 910.921C1005.38 906.673 1004 893.183 1001.84 886.904C996.035 870.034 979.928 858.117 963.856 851.757C960.058 850.253 955.385 850.008 951.828 848.172C949.873 847.164 949.664 846.816 949.024 844.822C952.007 838.939 971.582 835.67 978.176 831.532C996.784 819.857 1003.31 799.532 1007.85 779.41Z"/><path fill="#FAF7EE" d="M1010.82 800.808C1013.37 803.196 1015.12 809.504 1016.9 812.748C1025.53 828.44 1039.25 837.276 1055.01 844.597L1054.45 844.836C1034.28 853.415 1020.03 867.681 1011.83 888.009L1010.77 887.585C1002.33 866.702 987.987 854.327 968.07 844.912L969.413 844.372C990.166 835.914 1002.23 821.056 1010.82 800.808Z"/><path fill="#15324E" d="M876.681 487.357C878.32 487.793 880.197 488.349 881.178 489.858C882.889 492.491 883.527 497.361 884.436 500.431C887.555 510.968 892.641 521.024 899.877 529.343C910.558 541.619 927.887 542.509 940.387 551.372C939.151 554.879 919.991 559.791 915.72 561.752C912.182 563.376 908.706 565.893 905.586 568.247C894.346 576.726 888.002 588.799 884.18 602.098C882.951 606.374 882.268 610.766 880.096 614.696C878.127 613.931 876.423 613.604 875.326 611.623C873.63 608.561 872.988 603.687 872.024 600.266C869.243 590.18 864.335 580.805 857.631 572.772C847.624 560.782 822.224 558.416 816.53 550.764C820.787 547.965 827.186 546.529 832.016 544.788C854.376 536.731 864.961 524.004 872.331 501.89C873.943 497.055 874.5 491.997 876.681 487.357Z"/><path fill="#F5D77E" d="M878.28 508.681C888.669 529.773 898.141 541.058 919.647 551.266C899.204 560.637 887.699 572.897 878.635 593.301C877.733 592.573 877.502 591.664 877.071 590.638C868.747 570.825 857.127 559.653 837.473 551.589C858.331 542.417 870.023 529.81 878.28 508.681Z"/><path fill="#15324E" d="M1539.81 524.418C1541.45 525.072 1542.93 525.357 1543.95 526.911C1545.59 529.428 1546.11 534.158 1547.06 537.116C1550.89 549.106 1556.85 560.259 1565.83 569.208C1574.82 578.156 1592.04 578.184 1599.82 585.842C1590.23 591.564 1577.96 592.617 1568.34 599.043C1547.11 613.226 1549.29 638.445 1541.54 646.414C1540.51 645.832 1538.42 644.576 1537.91 643.49C1536.63 640.753 1536.1 636.721 1535.22 633.753C1532.08 623.12 1527.36 612.647 1519.57 604.572C1509.17 593.791 1486.97 592.091 1480.44 584.68C1488.3 579.345 1500.24 578.281 1509.04 574.148C1522.7 567.733 1530.67 551.697 1535.06 538.073C1536.55 533.434 1537.27 528.647 1539.81 524.418Z"/><path fill="#F5D77E" d="M1540.74 544.854C1542.9 547.251 1544.49 551.767 1546.26 554.646C1554.89 568.732 1562.94 577.408 1577.65 585.392C1559.17 594.159 1548.14 607.147 1540.8 626.015C1532.83 605.885 1521.88 594.967 1502.32 585.754C1521.91 576.887 1532.72 564.639 1540.74 544.854Z"/><path fill="#15324E" d="M411.601 72.2967L415.073 72.9512C419.287 75.8029 422.366 90.7191 425.08 96.0418C428.15 102.061 432.488 108.207 437.473 112.794C444.496 119.257 467.327 124.248 470.859 130.327C465.847 134.171 458.214 135.364 452.346 137.615C443.283 141.091 431.938 151.646 427.116 159.911C421.851 168.936 420.958 180.937 415.418 189.219C414.862 189.001 414.329 188.775 413.805 188.484C410.887 186.864 410.624 184.191 409.811 181.245C404.119 160.647 395.513 144.732 374.237 137.081C369.528 135.388 362.483 134.674 358.386 132.08C356.669 130.993 356.609 130.871 356.142 128.894C358.192 126.612 376.911 121.74 382.256 118.653C400.312 108.223 406.495 91.2974 411.601 72.2967Z"/><path fill="#FAF7EE" d="M413.576 90.6982C415.388 92.1647 417.053 96.764 418.384 98.9492C427.811 114.421 436.238 121.988 452.409 129.899C434.371 139.027 423.823 149.535 414.991 167.729C413.303 167.255 406.077 152.875 403.563 149.804C396.004 140.569 386.971 134.589 376.204 129.674C376.395 129.593 376.587 129.515 376.777 129.432C394.49 121.711 406.578 108.597 413.576 90.6982Z"/><path fill="#F5D77E" d="M77.024 813.98C80.819 806.647 85.5454 787.819 91.1638 783.584C93.3786 784.546 93.9858 786.16 94.8832 788.363C98.8285 798.049 100.568 807.91 106.583 816.759C111.62 822.366 116.729 826.892 123.156 830.906C127.647 833.134 132.048 834.14 136.802 835.524C139.967 836.446 141.446 836.89 143.017 839.787C142.843 840.37 142.612 841.807 142.285 842.242C140.367 844.796 118.151 851.4 109.787 860.167C107.094 862.99 103.949 866.633 102.221 870.126C98.5706 877.5 97.2221 894.178 90.0034 898.143C87.3808 896.215 82.6065 878.366 80.5788 873.982C78.4128 869.229 75.5885 864.805 72.1891 860.84C59.9786 846.858 47.8602 849.926 38.997 841.586C38.9367 840.819 38.5827 839.98 39.1723 839.422C41.391 837.321 44.7338 836.412 47.5364 835.291C60.261 830.201 68.5464 825.152 77.024 813.98Z"/><path fill="#15324E" d="M77.024 813.98C80.819 806.647 85.5454 787.819 91.1638 783.584C93.3786 784.546 93.9858 786.16 94.8832 788.363C98.8285 798.049 100.568 807.91 106.583 816.759C104.427 818.005 102.275 818.89 101.191 821.249C96.0736 814.865 93.5504 807.824 90.8901 800.212C88.8832 805.758 86.6955 810.915 83.9221 816.124C76.5823 827.97 67.6921 835.021 54.9738 840.462C73.7111 850.126 82.8305 859.554 90.8035 878.844C99.907 857.17 106.273 852.939 125.47 840.564C124.256 839.537 123.074 838.641 121.724 837.799L123.278 837.059C124.62 834.835 123.702 833.357 123.156 830.906C127.647 833.134 132.048 834.14 136.802 835.524C139.967 836.446 141.446 836.89 143.017 839.787C142.843 840.37 142.612 841.807 142.285 842.242C140.367 844.796 118.151 851.4 109.787 860.167C107.094 862.99 103.949 866.633 102.221 870.126C98.5706 877.5 97.2221 894.178 90.0034 898.143C87.3808 896.215 82.6065 878.366 80.5788 873.982C78.4128 869.229 75.5885 864.805 72.1891 860.84C59.9786 846.858 47.8602 849.926 38.997 841.586C38.9367 840.819 38.5827 839.98 39.1723 839.422C41.391 837.321 44.7338 836.412 47.5364 835.291C60.261 830.201 68.5464 825.152 77.024 813.98Z"/><path fill="#15324E" d="M106.583 816.759C111.62 822.366 116.729 826.892 123.156 830.906C123.702 833.357 124.62 834.835 123.278 837.059L121.724 837.799C113.188 834.538 106.728 828.284 101.191 821.249C102.275 818.89 104.427 818.005 106.583 816.759Z"/><path fill="#15324E" d="M1110.81 71.3323C1112.34 71.7087 1113.8 71.7972 1114.89 73.0707C1117.99 76.6859 1120.01 86.9933 1122.06 91.7804C1124.24 96.7581 1126.94 101.487 1130.13 105.887C1139.37 118.791 1156.23 118.851 1166.03 128.328C1156.82 132.248 1147.17 135.906 1138.75 141.359C1123.67 151.115 1118.41 168.923 1114.85 185.453L1111.52 185.038C1108.43 182.828 1100.73 154.346 1092.03 145.551C1084.85 138.292 1064.05 132.845 1060.12 126.599C1080.28 117.775 1095.7 112.654 1104.25 90.3514C1106.66 84.0748 1108.18 77.5329 1110.81 71.3323Z"/><path fill="#F5D77E" d="M1112.62 89.8008C1114.69 92.7203 1115.81 96.8634 1117.61 100.063C1125.05 113.287 1134.49 120.872 1147.87 127.584C1131.08 135.399 1120.47 147.028 1112.96 163.759C1110.43 163.193 1106.41 153.357 1104.89 150.697C1098.92 140.287 1088.03 133.412 1077.69 128.036C1094.99 118.708 1105.34 108.367 1112.62 89.8008Z"/><path fill="#15324E" d="M1925.58 77.3787C1926.9 77.8524 1928.8 78.4559 1929.69 79.6086C1933.23 84.1786 1937.37 102.561 1945.01 112.817C1954.42 125.455 1971.74 125.329 1978.85 133.821C1976.78 136.843 1959.17 141.754 1954.32 144.393C1951.2 146.088 1948.29 149.006 1945.79 151.528C1931.85 165.584 1935.09 179.563 1928.46 188.687C1926.76 188.004 1924.96 187.144 1924.13 185.408C1922.88 182.8 1922.41 179.396 1921.46 176.615C1918.15 166.906 1913.01 156.547 1905.68 149.213C1897.5 141.021 1882.9 140.762 1875.27 133.048C1879.83 127.675 1897.99 127.671 1910.04 112.261C1919.77 99.8162 1918.85 87.9047 1925.58 77.3787Z"/><path fill="#FAF7EE" d="M1927.18 96.6033C1929.42 98.8823 1930.98 103.562 1932.58 106.434C1939.45 118.775 1948.38 126.148 1960.07 133.667C1944.02 140.711 1934.5 151.416 1927.55 167.245C1926.21 167.574 1921.12 156.18 1919.9 154.36C1913.99 145.546 1903.73 138.44 1894.68 133.187C1910.96 124.619 1920.55 113.721 1927.18 96.6033Z"/><path fill="#15324E" d="M1705.89 381.166C1709.55 380.795 1713.31 380.551 1716.95 381.189C1722.71 382.199 1728.33 385.071 1731.68 389.98C1734.79 394.541 1735.49 400.571 1734.42 405.9C1732.66 414.594 1726.7 421.577 1719.33 426.22C1704.48 435.577 1687.29 435.286 1670.87 431.419C1662.15 428.133 1645.23 420.891 1639.6 413.393C1638.04 411.316 1638.36 410.583 1638.74 408.179C1639.34 407.442 1639.94 406.846 1640.78 406.39C1647.47 402.789 1657.12 400.96 1664.35 398.158C1678.17 392.798 1691.46 384.642 1705.89 381.166Z"/><path fill="#FAF7EE" d="M1707.05 388.095C1709.91 387.957 1713.18 387.674 1716 388.238C1719.96 389.029 1724 391.131 1726.15 394.651C1728.04 397.745 1728.17 401.601 1727.29 405.044C1725.51 412.087 1720.38 417.463 1714.19 420.997C1701.46 428.269 1687.35 428.209 1673.59 424.608C1665.05 422.357 1655.46 417.036 1648.78 411.302C1668.64 404.616 1687.12 394.16 1707.05 388.095Z"/><path fill="#15324E" d="M1032 570.765C1031.1 567.005 1029.11 561.35 1030.07 557.558C1030.47 556 1031.2 555.866 1032.49 555.037C1038.98 556.136 1035.74 563.871 1038.92 568.212C1041.4 569.589 1041.72 569.97 1044.49 569.599C1048.27 566.948 1049.09 562.094 1051.63 558.435C1052.75 556.814 1052.72 556.806 1054.68 556.459C1060.26 561.764 1052.26 566.41 1053.95 572.377C1054.85 573.386 1055.7 574.385 1056.94 574.977C1059.22 576.068 1060.23 575.367 1062.48 574.674C1064.58 575.848 1066.47 576.971 1068.29 578.566C1068.16 578.656 1068.03 578.743 1067.9 578.834C1067.69 578.985 1067.48 579.144 1067.26 579.292C1064.76 581.01 1063.77 581.769 1062.67 584.757C1064.76 590.356 1073.99 588.899 1078.84 591.756L1079.02 594.057C1075.58 597.355 1070.76 595.93 1066.35 596.969C1063.84 597.563 1063.03 598.868 1061.69 600.854C1063.58 606.466 1071.09 607.616 1072.67 613.038C1071.68 614.98 1071.18 615.159 1069.38 616.267C1065.03 616 1062.19 610.439 1057.91 608.922C1055.35 609.296 1055 609.45 1053.06 611.154C1051.9 615.05 1054.56 619.517 1054.87 623.507C1055.04 625.609 1054.82 625.633 1053.53 627.174C1053.22 627.183 1051.16 627.343 1051.04 627.245C1047.16 624.181 1046.51 616.389 1041.89 612.762C1035.59 612.144 1036.18 622.843 1031.13 625.74L1029.31 625.028C1028.96 624.379 1028.63 623.738 1028.37 623.041C1027.04 619.4 1029.82 615.022 1031.37 611.756L1024.09 606.909C1021.73 608.961 1019.06 611.728 1016.33 613.24C1014.37 614.321 1013.63 614.346 1011.58 613.712L1010.64 611.613C1012.07 606.608 1018.42 605.205 1020.35 600.342C1017.8 591.661 1008.73 595.871 1003.56 591.034L1004.62 588.685C1007.52 586.527 1013.51 587.199 1017.07 587.141C1019.61 585.61 1019.77 584.621 1020.9 581.982C1019.76 577.098 1014.23 576.639 1012.04 572.657C1011.09 570.935 1011.74 570.075 1012.33 568.361L1014.39 567.513C1018.59 568.604 1021.9 571.988 1025.15 574.723L1032 570.765Z"/><path fill="#FAF7EE" d="M1036.56 576.63C1041.99 574.899 1047.92 576.238 1052.08 580.131C1056.24 584.024 1057.97 589.861 1056.6 595.39C1055.23 600.919 1050.98 605.274 1045.48 606.776C1037.23 609.032 1028.69 604.275 1026.26 596.072C1023.83 587.868 1028.41 579.229 1036.56 576.63Z"/><path fill="#15324E" d="M1037.35 585.798C1039.48 584.475 1042.15 584.407 1044.34 585.622C1046.52 586.836 1047.88 589.142 1047.88 591.643C1047.88 594.145 1046.52 596.448 1044.33 597.66C1041.06 599.468 1036.95 598.345 1035.06 595.128C1033.17 591.911 1034.19 587.772 1037.35 585.798Z"/><path fill="#15324E" d="M1177.89 652.523C1179.65 652.585 1182.58 652.559 1183.75 654.213C1189.69 662.683 1189.59 673.12 1198.03 681.328C1203.04 686.201 1212.77 687.023 1218.87 690.424C1220.9 691.557 1221.43 692.192 1221.99 694.37C1216.14 699.324 1206.84 700.168 1200.57 704.955C1186.35 715.824 1190.65 726.504 1182.82 737.232C1181.31 736.951 1179.04 736.25 1178.19 734.831C1173.52 726.992 1172.9 717.24 1167.16 709.518C1160.53 700.596 1146.34 700.607 1139.38 692.81C1138.81 692.166 1139.09 691.714 1139.16 690.898C1146.45 688.72 1153.98 686.898 1160.42 682.676C1171.59 675.351 1175.28 664.917 1177.89 652.523Z"/><path fill="#FAF7EE" d="M1180.74 669.764C1190.15 681.311 1190.26 685.819 1204.81 693.346C1193.61 699.758 1187.23 707.101 1181.41 718.383C1179.53 716.892 1177.96 713.262 1176.59 711.18C1171.4 703.286 1165.45 698.045 1157.44 693.17C1168.41 687.002 1174.81 680.966 1180.74 669.764Z"/><path fill="#15324E" d="M936.933 648.358C937.806 648.564 938.651 648.805 939.468 649.184C943.735 651.164 945.955 663.81 947.587 668.148C952.89 682.241 967.931 684.14 979.636 689.484L980.164 691.05C977.848 695.605 965.042 698.173 960.55 700.81C948.754 707.736 944.795 720.547 941.665 732.961C940.587 732.897 939.042 732.994 938.019 732.746C934.83 731.972 928.27 709.992 924.368 705.562C919.423 699.947 909.798 697.62 903.507 693.523C901.66 692.32 900.665 691.641 900.192 689.449C902.438 686.839 905.729 687.245 908.838 686.299C933.644 678.751 928.473 663.315 936.933 648.358Z"/><path fill="#F5D77E" d="M938.682 666.857C945.39 678.659 950.336 685.059 962.454 691.632C951.291 697.034 945.055 703.336 939.508 714.389C937.889 714.582 937.211 712.136 936.426 710.738C931.455 701.883 925.622 696.343 916.765 691.515C927.973 685.107 933.815 678.679 938.682 666.857Z"/><path fill="#15324E" d="M1966.71 389.378C1975.43 390.776 1975.47 405.722 1980.8 411.919C1988.05 420.337 2000.95 420.593 2008.1 427.933C2008.84 433.26 1992.93 436.201 1988.62 439.203C1977.07 447.244 1976.69 458.096 1970.5 469.067C1962.42 466.551 1961.76 451.743 1956.49 445.17C1950.58 437.811 1938.35 436.017 1930.72 430.961C1928.78 429.674 1928.29 428.98 1927.89 426.763C1931.48 423.897 1939.13 423.931 1943.95 421.509C1957.87 414.525 1962.08 403.348 1966.71 389.378Z"/><path fill="#F5D77E" d="M1968.72 406.602C1970.38 407.831 1971.53 410.284 1972.74 412.001C1978.08 419.575 1983.78 424.545 1992.09 428.737C1981.94 434.551 1975.37 440.325 1969.49 450.539L1969.3 450.599C1966.7 450.084 1962.35 441.417 1960.1 438.974C1956.15 434.667 1951.35 431.849 1946.32 429.016C1956.92 423.077 1963.03 417.311 1968.72 406.602Z"/><path fill="#15324E" d="M1596.2 372.513C1608.67 371.207 1619.86 380.174 1621.31 392.624C1622.76 405.074 1613.93 416.372 1601.49 417.965C1593.32 419.012 1585.22 415.586 1580.28 408.995C1575.34 402.405 1574.32 393.666 1577.61 386.116C1580.91 378.567 1588.01 373.371 1596.2 372.513Z"/><path fill="#FAF7EE" d="M1593.29 380.515C1601.5 377.703 1610.45 382.072 1613.28 390.281C1616.11 398.491 1611.76 407.443 1603.56 410.295C1595.33 413.156 1586.34 408.791 1583.5 400.553C1580.66 392.316 1585.04 383.337 1593.29 380.515Z"/><path fill="#15324E" d="M886.328 114.185C894.534 113.537 902.299 114.319 910.014 117.371C915.439 119.518 922.491 122.686 924.938 128.278C924.298 137.595 908.771 138.722 902.682 144.609L901.955 145.321C899.611 147.163 897.196 148.69 894.459 149.895C889.456 152.099 883.538 152.617 878.42 150.493C874.162 148.749 870.823 145.311 869.206 141.003C867.478 136.45 867.698 131.387 869.813 127C873.051 120.117 879.423 116.55 886.328 114.185Z"/><path fill="#FAF7EE" d="M889.76 119.088C897.583 118.917 903.383 120.705 910.387 123.932C913.195 125.226 915.238 126.256 916.311 129.202C915.054 131.683 902.346 137.49 898.456 140.79C896.036 142.589 893.307 144.19 890.432 145.147C887.084 146.262 883.253 146.18 880.096 144.543C877.29 143.088 875.373 140.821 874.5 137.771C873.545 134.434 874.148 130.8 875.896 127.825C878.959 122.613 884.187 120.556 889.76 119.088Z"/><path fill="#15324E" d="M1635.45 346.591C1644.79 345.402 1653.38 351.911 1654.75 361.234C1656.12 370.557 1649.79 379.266 1640.49 380.825C1634.31 381.861 1628.06 379.477 1624.14 374.593C1620.21 369.708 1619.24 363.085 1621.58 357.277C1623.93 351.468 1629.23 347.381 1635.45 346.591Z"/><path fill="#FAF7EE" d="M1637.27 353.514C1642.77 353.294 1647.44 357.513 1647.77 363.008C1648.1 368.503 1643.98 373.257 1638.5 373.706C1634.84 374.005 1631.31 372.306 1629.27 369.263C1627.23 366.22 1626.99 362.311 1628.65 359.043C1630.31 355.775 1633.61 353.66 1637.27 353.514Z"/><path fill="#15324E" d="M85.4875 108.487C94.8971 106.755 103.92 113.008 105.601 122.427C107.282 131.846 100.98 140.834 91.5518 142.464C82.1959 144.082 73.2908 137.838 71.6226 128.491C69.9544 119.144 76.1498 110.205 85.4875 108.487Z"/><path fill="#FAF7EE" d="M87.68 114.427C93.4568 113.921 98.6059 118.058 99.3556 123.808C100.105 129.558 96.1892 134.877 90.4758 135.869C86.5591 136.549 82.585 135.027 80.1248 131.905C77.6645 128.782 77.1143 124.562 78.6917 120.913C80.269 117.264 83.72 114.774 87.68 114.427Z"/><path fill="#15324E" d="M1412.04 95.0186C1412.72 94.9705 1413.4 94.945 1414.09 94.9422C1418.65 94.9153 1422.77 95.7003 1426.08 99.1257C1431.33 104.568 1430.93 113.101 1430.94 120.121C1436.41 118.562 1444.56 114.467 1449.91 114.236C1451.72 114.158 1451.91 114.196 1453.23 115.395C1450.34 120.592 1437.78 120.722 1432.6 123.52C1429.71 125.08 1429.64 128.499 1428.87 131.438C1428.11 135.15 1427.24 138.723 1426.09 142.331L1426.05 141.793C1425.4 142.884 1424.87 144.062 1424.31 145.2L1423.56 144.25C1423.03 137.436 1424.97 130.892 1426.51 124.311C1422.67 124.574 1418.72 124.73 1414.94 123.856C1410.47 122.822 1405.41 119.512 1403 115.574C1401.3 112.813 1400.74 109.82 1401.55 106.654C1402.97 101.098 1407.38 97.8144 1412.04 95.0186Z"/><path fill="#FAF7EE" d="M1414.85 98.075C1416.66 98.3753 1418.8 98.6328 1420.47 99.4329C1423.46 100.868 1426 105.152 1427.07 108.176C1428.5 112.183 1427.82 115.126 1425.99 118.831C1423.13 120.933 1421.42 120.747 1417.93 121.098C1416.79 120.84 1415.66 120.568 1414.54 120.21C1410.96 119.062 1407.93 116.887 1406.27 113.439C1405.1 111.013 1404.85 108.556 1405.83 106.009C1407.48 101.688 1410.85 99.9122 1414.85 98.075Z"/><path fill="#15324E" d="M1475.52 682.811C1481.25 680.965 1487.54 682.346 1491.98 686.427C1496.41 690.508 1498.31 696.658 1496.95 702.53C1495.59 708.401 1491.17 713.087 1485.39 714.798C1476.6 717.4 1467.35 712.446 1464.65 703.686C1461.94 694.926 1466.79 685.619 1475.52 682.811Z"/><path fill="#FAF7EE" d="M1480.45 687.685C1486.25 687.535 1491.17 691.911 1491.7 697.688C1492.23 703.466 1488.18 708.662 1482.45 709.567C1478.4 710.208 1474.32 708.539 1471.88 705.238C1469.44 701.936 1469.04 697.551 1470.84 693.862C1472.64 690.172 1476.34 687.791 1480.45 687.685Z"/><path fill="#15324E" d="M1367.63 332.336C1375.85 330.104 1384.32 334.99 1386.51 343.228C1388.7 351.466 1383.76 359.911 1375.51 362.052C1367.33 364.177 1358.96 359.291 1356.79 351.117C1354.62 342.943 1359.46 334.552 1367.63 332.336Z"/><path fill="#FAF7EE" d="M1367.31 337.625C1370.77 336.056 1374.81 336.487 1377.87 338.752C1380.92 341.017 1382.51 344.759 1382.02 348.53C1381.53 352.301 1379.03 355.509 1375.49 356.912C1370.2 359.012 1364.21 356.505 1361.98 351.267C1359.76 346.028 1362.12 339.972 1367.31 337.625Z"/><path fill="#15324E" d="M904.162 159.544C910.207 158.215 916.203 161.972 917.645 167.991C919.087 174.01 915.444 180.076 909.453 181.631C905.476 182.663 901.251 181.467 898.406 178.503C895.56 175.539 894.538 171.269 895.731 167.337C896.925 163.406 900.149 160.425 904.162 159.544Z"/><path fill="#FAF7EE" d="M904.798 165.354C907.623 164.312 910.757 165.771 911.779 168.604C912.8 171.438 911.32 174.561 908.48 175.563C905.667 176.555 902.581 175.092 901.57 172.287C900.558 169.481 901.999 166.385 904.798 165.354Z"/><path fill="#15324E" d="M793.324 411.136C796.356 410.955 799.803 411.351 802.67 412.372C807.275 414.011 810.966 417.663 813.044 422.041C815.253 426.694 815.475 432.482 813.574 437.275C811.727 441.934 808.31 445.435 803.628 447.251C799.419 448.884 795.374 449.108 791.211 447.299C789.844 446.705 789.932 446.682 789.398 445.324C793.235 443.449 796.944 444.208 800.993 443.591C805.371 442.923 807.702 439.359 810.209 436.079C811.017 433.225 811.499 430.319 810.898 427.369C810.029 423.122 807.458 419.415 803.784 417.113C800.444 414.996 796.371 414.37 792.55 415.386C776.561 419.718 785.512 430.579 781.926 436.951L780.238 437.346C779.619 436.673 779.025 435.947 778.656 435.1C777.175 431.702 777.653 425.729 779.152 422.408C782.043 416.003 787.09 413.576 793.324 411.136Z"/><path fill="#15324E" d="M1096.57 741.057C1100.55 741.105 1104.69 742.067 1108.08 744.203C1112.06 746.715 1115.12 750.69 1116.05 755.36C1116.55 757.909 1116.33 760.711 1114.9 762.808C1110.43 760.579 1110.31 752.45 1107.39 748.272C1105.97 746.244 1104 744.51 1101.45 744.193C1097.13 743.652 1091.84 746.921 1088.65 749.549C1084.53 752.956 1084.05 757.772 1083.53 762.78C1084.06 764.375 1084.6 766.042 1085.42 767.521C1088.39 772.95 1095.14 774.173 1100.6 775.861L1101.38 777.451L1100.03 780.313C1098.44 780.565 1096.47 779.891 1095.01 779.264C1088.52 776.459 1082.91 771.707 1080.34 764.973C1078.86 761.106 1078.4 756.354 1080.42 752.575C1083.46 746.886 1090.62 742.781 1096.57 741.057Z"/><path fill="#15324E" d="M1595.58 432.602C1600.98 431.216 1606.48 434.483 1607.85 439.89C1609.21 445.297 1605.93 450.786 1600.51 452.132C1595.13 453.472 1589.67 450.206 1588.32 444.826C1586.96 439.447 1590.2 433.981 1595.58 432.602Z"/><path fill="#15324E" d="M1827.64 120.051C1831.69 120.17 1835.67 120.646 1839.09 122.998C1842.89 125.606 1844.74 129.046 1845.58 133.481L1844.5 134.668C1841.26 133.212 1839.95 128.036 1837.16 125.767C1834.99 124.006 1831.38 122.916 1828.59 123.19C1824.91 123.552 1821.97 125.831 1819.77 128.663C1815.58 134.066 1815.5 137.823 1816.38 144.408C1817.19 145.637 1818.02 146.872 1818.99 147.988C1822.31 151.82 1825.47 152.977 1830.44 153.272L1831.39 153.324L1832.04 155.241L1831.02 156.099C1827.69 156.48 1822.88 155.546 1820.03 153.747C1816.68 151.628 1813.83 147.153 1812.81 143.368C1811.5 138.499 1812.22 133.304 1814.82 128.98C1818.01 123.566 1821.74 121.661 1827.64 120.051Z"/><path fill="#15324E" d="M939.167 126.564C943.599 125.5 948.072 128.162 949.25 132.566C950.427 136.97 947.88 141.51 943.507 142.8C940.578 143.664 937.41 142.871 935.233 140.728C933.056 138.586 932.213 135.431 933.03 132.488C933.847 129.545 936.197 127.277 939.167 126.564Z"/><path fill="#15324E" d="M331.306 455.466C335.251 453.592 339.97 455.214 341.929 459.117C343.887 463.021 342.367 467.774 338.507 469.816C335.935 471.177 332.828 471.04 330.386 469.458C327.944 467.875 326.549 465.095 326.74 462.192C326.931 459.288 328.678 456.715 331.306 455.466Z"/><path fill="#15324E" d="M370.293 448.649C372.502 448.645 374.289 448.777 376.217 449.966C379.575 452.038 382.268 454.537 383.168 458.518C383.883 461.675 382.179 464.005 380.542 466.504C378.968 466.812 376.57 467.148 374.966 466.789C372.581 466.255 371.106 464.577 370.054 462.502C368.306 459.057 369.097 452.187 370.293 448.649Z"/><path fill="#15324E" d="M347.539 414.736C351.573 413.673 355.708 416.068 356.794 420.097C357.88 424.125 355.508 428.274 351.486 429.382C347.431 430.5 343.242 428.105 342.147 424.044C341.053 419.983 343.472 415.807 347.539 414.736Z"/><path fill="#15324E" d="M925.782 100.5C928.201 99.2093 931.13 99.3369 933.427 100.833C935.724 102.329 937.026 104.956 936.824 107.689C936.622 110.423 934.949 112.831 932.457 113.973C928.761 115.667 924.388 114.118 922.583 110.475C920.778 106.831 922.195 102.413 925.782 100.5Z"/><path fill="#15324E" d="M1640.09 446.227C1640.77 446.364 1641.61 446.477 1642.24 446.802C1642.94 447.158 1644.16 448.029 1644.37 448.798C1646.09 455.097 1640.16 467.114 1637.05 472.652C1635.47 472.185 1634.42 471.34 1633.13 470.359C1630.86 464.622 1637.7 451.964 1640.09 446.227Z"/><path fill="#15324E" d="M875.876 94.6124C879.787 94.0339 883.452 96.6625 884.158 100.553C884.864 104.443 882.357 108.192 878.492 109.025C875.876 109.588 873.162 108.682 871.41 106.66C869.658 104.639 869.147 101.823 870.077 99.3146C871.007 96.8062 873.229 95.0038 875.876 94.6124Z"/><path fill="#15324E" d="M62.3653 139.455C63.8163 140.24 64.6878 140.948 65.7809 142.189C66.3681 142.855 66.0146 144.034 65.9521 144.91C62.2348 150.78 55.0036 155.125 49.5521 159.343L46.9059 158.844C46.4287 158.326 45.4236 157.581 45.4895 156.874C45.9871 151.531 58.1084 143.057 62.3653 139.455Z"/><path fill="#15324E" d="M1396.43 322.468C1400.38 322.39 1403.64 325.512 1403.74 329.456C1403.84 333.399 1400.74 336.683 1396.8 336.805C1392.82 336.928 1389.51 333.794 1389.41 329.819C1389.31 325.845 1392.46 322.547 1396.43 322.468Z"/><path fill="#15324E" d="M1376 368.593C1378.37 368.777 1380.14 369.135 1382.15 370.501C1384.29 371.956 1385.77 373.969 1386.05 376.582C1386.45 380.23 1384.67 382.196 1382.44 384.739C1380.39 384.715 1378.19 384.454 1376.38 383.444C1374.88 382.616 1373.74 381.06 1373.25 379.443C1372.05 375.45 1373.99 371.896 1376 368.593Z"/><path fill="#15324E" d="M1677.79 317.471C1677.92 317.53 1678.06 317.58 1678.19 317.648C1679.42 318.293 1681.1 319.483 1681.39 320.861C1682.5 326.04 1675.44 338.673 1672.36 342.822C1671.14 341.892 1669.14 340.866 1668.85 339.34C1667.74 333.411 1674.67 322.469 1677.79 317.471Z"/><path fill="#15324E" d="M1673.7 452.281C1675.91 452.816 1677.05 452.784 1678.54 454.6C1682.06 458.887 1682.76 469.956 1682.35 475.349C1681.71 475.363 1681.05 475.399 1680.41 475.301C1678.34 474.982 1677.56 474.727 1676.35 473.009C1672.82 468.013 1672.51 458.093 1673.7 452.281Z"/><path fill="#15324E" d="M46.1091 99.7883C46.2483 99.777 46.387 99.7606 46.5265 99.7546C46.758 99.7447 46.9901 99.7526 47.2215 99.7406C51.3481 99.5259 54.5309 101.432 57.8905 103.677C62.3986 106.69 65.1506 108.991 66.2376 114.322C65.4708 114.622 64.7173 114.862 63.9092 115.03C61.0947 115.613 58.2024 113.493 55.9447 112.025C51.0106 108.818 47.3837 105.544 46.1091 99.7883Z"/><path fill="#15324E" d="M1712.89 345.626C1715.28 345.891 1715.81 345.773 1717.56 347.359C1717.03 353.347 1707.95 359.378 1703.65 363.186C1701.33 362.902 1701.02 362.896 1699.3 361.339C1700.08 355.017 1708.33 349.652 1712.89 345.626Z"/><path fill="#15324E" d="M77.0957 151.314C77.2199 151.363 77.3479 151.404 77.4682 151.462C80.051 152.704 80.4025 152.896 81.4139 155.478C80.7869 162.187 77.5188 168.069 74.2983 173.871C74.125 173.818 73.9487 173.774 73.7785 173.713C72.4644 173.235 70.6085 172.459 70.0875 171.122C68.2061 166.295 74.8405 155.672 77.0957 151.314Z"/><path fill="#15324E" d="M55.9468 122.453C58.7442 121.891 60.6339 122.116 63.0442 123.523L63.2119 125.38C62.8581 125.937 62.5012 126.442 62.0446 126.925C58.6668 130.491 52.8007 130.094 48.2331 130.34C46.0332 130.71 44.9405 130.572 42.9493 129.558L42.3428 127.259C42.7498 126.473 43.0648 125.911 43.6868 125.28C46.5441 122.378 52.1223 122.676 55.9468 122.453Z"/><path fill="#15324E" d="M108.978 140.696C113.498 142.143 121.533 147.853 124.25 151.661C125.857 153.913 125.255 154.933 124.752 157.494C124.581 157.481 124.409 157.474 124.238 157.455C118.339 156.786 111.269 151.04 107.646 146.577C106.941 143.621 107.538 143.224 108.978 140.696Z"/><path fill="#15324E" d="M1593.59 337.59C1598.2 338.847 1600.54 340.926 1603.39 344.866C1606.01 348.487 1608.06 351.65 1607.3 356.241C1606.47 356.253 1605.64 356.225 1604.82 356.077C1601.87 355.545 1598.57 351.685 1596.91 349.344C1593.95 345.184 1592.77 342.59 1593.59 337.59Z"/><path fill="#15324E" d="M1710.24 441.563L1713.91 442.288C1717.21 445.563 1720.53 449.06 1722.77 453.179C1724.14 455.694 1723.4 457.016 1722.64 459.519C1722.44 459.487 1722.24 459.464 1722.05 459.423C1721.72 459.355 1721.4 459.261 1721.07 459.19C1720.35 459.033 1720.52 459.135 1719.76 458.897C1716.16 457.761 1712.2 452.831 1710.53 449.54C1708.92 446.353 1709.21 444.867 1710.24 441.563Z"/><path fill="#15324E" d="M92.4624 153.371C95.0689 153.613 96.3519 153.38 98.1848 155.432C101.685 159.352 103.82 168.361 103.504 173.494C101.381 173.335 99.5994 173.593 98.0404 171.905C94.5448 168.12 91.9764 158.429 92.4624 153.371Z"/><path fill="#15324E" d="M121.396 96.8519C122.337 96.8733 123.487 97.3245 124.412 97.561C125.013 98.5644 125.491 98.8178 125.244 100.038C124.421 104.109 115.906 109.076 112.583 111.434C110.293 110.868 109.961 110.751 108.36 109.036C109.428 103.521 116.987 99.8501 121.396 96.8519Z"/><path fill="#15324E" d="M98.0338 79.2192C100.828 80.3868 101.142 80.3927 102.594 83.0095C102.837 89.0298 100.207 94.2015 97.5411 99.4517C96.406 99.0159 95.2995 98.2992 94.2257 97.72C91.6734 91.4691 95.637 85.1016 98.0338 79.2192Z"/><path fill="#15324E" d="M69.3362 81.4013L73.4664 82.0976C74.9323 83.2233 75.9888 84.5673 76.9048 86.1573C79.2925 90.302 80.4337 95.7137 79.1842 100.372C78.8399 100.342 78.4948 100.314 78.1533 100.261C76.2154 99.9584 75.1882 99.3361 74.049 97.7267C71.1946 93.694 68.4859 86.3502 69.3362 81.4013Z"/><path fill="#15324E" d="M115.125 122.318C119.978 122.443 125.327 121.378 129.895 123.329C131.681 125.749 131.53 125.994 131.366 129.034C128.621 129.354 125.87 129.627 123.115 129.851C119.985 130.086 117.045 130.181 114.521 128.024C113.905 125.374 114.168 124.906 115.125 122.318Z"/><path fill="#15324E" d="M1633.48 317.415L1636.56 318.126C1638.53 319.506 1639.22 321.56 1639.73 323.811C1640.66 327.889 1640.68 333.049 1638.37 336.656C1636.25 336.014 1635.26 335.273 1633.81 333.618C1631.83 328.435 1631.18 322.6 1633.48 317.415Z"/><path fill="#15324E" d="M1619.48 423.42C1621.02 423.671 1622.9 423.91 1624.24 424.734C1626.22 425.941 1627.79 428.174 1628.18 430.454C1628.73 433.671 1627.58 435.669 1625.88 438.222C1625.17 437.94 1624.46 437.649 1623.77 437.299C1621.25 436.013 1618.53 433.858 1617.73 431.043C1616.87 428.012 1618.03 425.943 1619.48 423.42Z"/><path fill="#15324E" d="M375.107 428.438C376.549 428.65 377.828 429.302 379.152 429.882C380.515 431.832 381.612 432.955 381.014 435.504C380.284 438.621 378.038 439.713 375.667 441.462C374.508 441.03 372.966 440.584 371.955 439.873C369.887 438.421 369.869 437.397 369.495 435.075C370.689 431.999 372.632 430.483 375.107 428.438Z"/><path fill="#15324E" d="M1671.83 353.454C1674.54 352.165 1677.79 353.316 1679.08 356.026C1680.38 358.736 1679.25 361.986 1676.54 363.295C1673.82 364.611 1670.55 363.466 1669.24 360.741C1667.94 358.016 1669.1 354.749 1671.83 353.454Z"/><path fill="#15324E" d="M903.556 90.4918C906.133 89.1125 909.341 90.0983 910.699 92.6871C912.057 95.2759 911.044 98.4753 908.444 99.8118C905.875 101.133 902.721 100.135 901.378 97.5762C900.036 95.0174 901.008 91.8551 903.556 90.4918Z"/><path fill="#15324E" d="M867.838 162.606C870.278 161.024 873.539 161.727 875.111 164.173C876.683 166.62 875.968 169.878 873.516 171.441C871.077 172.995 867.84 172.285 866.276 169.852C864.713 167.419 865.411 164.179 867.838 162.606Z"/><path fill="#15324E" d="M923.515 146.668C925.929 145.207 929.072 145.995 930.511 148.422C931.951 150.85 931.135 153.985 928.695 155.403C926.285 156.804 923.197 156 921.775 153.603C920.354 151.206 921.13 148.11 923.515 146.668Z"/><path fill="#15324E" d="M932.802 161.494C934.284 160.416 936.235 160.23 937.894 161.009C939.552 161.788 940.655 163.408 940.772 165.236C940.888 167.065 940 168.812 938.454 169.795C936.164 171.251 933.132 170.626 931.606 168.383C930.079 166.14 930.609 163.09 932.802 161.494Z"/><path fill="#15324E" d="M852.693 127.455C854.397 126.817 856.315 127.18 857.668 128.398C859.021 129.615 859.585 131.484 859.13 133.246C858.675 135.009 857.278 136.372 855.505 136.782C852.999 137.363 850.472 135.899 849.729 133.436C848.987 130.973 850.283 128.356 852.693 127.455Z"/><path fill="#15324E" d="M1389.2 360.487C1392.02 361.259 1396.77 363.415 1398.14 366.096C1399.22 368.206 1398.37 369.403 1397.68 371.476C1394.14 370.82 1391.2 369.228 1388.83 366.528C1387.95 363.548 1388.03 363.376 1389.2 360.487Z"/><path fill="#15324E" d="M1342.46 324.463C1346.04 325.116 1348.91 326.659 1351.39 329.316C1352.23 332.253 1351.92 332.412 1350.61 335.22C1347.53 334.048 1344.63 333.142 1342.29 330.703C1341.36 327.884 1341.66 327.206 1342.46 324.463Z"/><path fill="#15324E" d="M1348.71 359.527C1348.93 359.584 1349.15 359.626 1349.37 359.698C1351.87 360.54 1352.46 360.803 1353.64 363.037C1352.87 366.07 1350.15 367.562 1347.75 369.273C1346.64 369.082 1346.96 369.212 1346.05 368.813C1344.06 367.935 1344.03 367.897 1343.25 365.965C1344.19 362.888 1346.3 361.456 1348.71 359.527Z"/><path fill="#15324E" d="M1062.48 574.674C1064.2 572.857 1067.07 570.396 1069.7 570.164C1071.67 569.991 1072.22 570.607 1073.72 571.691C1073.65 573.997 1073.55 574.693 1071.73 576.362C1070.78 577.23 1069.4 577.919 1068.29 578.566C1066.47 576.971 1064.58 575.848 1062.48 574.674Z"/></svg>